<svg xmlns="http://www.w3.org/2000/svg" xmlns:xlink="http://www.w3.org/1999/xlink" width="250" zoomAndPan="magnify" viewBox="0 0 187.5 187.499992" height="250" preserveAspectRatio="xMidYMid meet" version="1.0"><defs><g/><clipPath id="11c3d5610b"><path d="M 0.144531 0.144531 L 187 0.144531 L 187 187 L 0.144531 187 Z M 0.144531 0.144531 " clip-rule="nonzero"/></clipPath><clipPath id="2c4427fa5d"><path d="M 93.570312 0.144531 C 41.972656 0.144531 0.144531 41.972656 0.144531 93.570312 C 0.144531 145.171875 41.972656 187 93.570312 187 C 145.171875 187 187 145.171875 187 93.570312 C 187 41.972656 145.171875 0.144531 93.570312 0.144531 Z M 93.570312 0.144531 " clip-rule="nonzero"/></clipPath></defs><g clip-path="url(#11c3d5610b)"><g clip-path="url(#2c4427fa5d)"><path fill="#753296" d="M 0.144531 0.144531 L 187 0.144531 L 187 187 L 0.144531 187 Z M 0.144531 0.144531 " fill-opacity="1" fill-rule="nonzero"/></g></g><g fill="#ffffff" fill-opacity="1"><g transform="translate(15.24333, 135.086338)"><g><path d="M 32.46875 1.09375 L 27.515625 0.234375 L 22.8125 -1.453125 L 20.390625 -2.171875 L 18.109375 -3.265625 L 16.40625 -5.0625 L 12.1875 -7.71875 L 10.625 -9.53125 L 8.9375 -11.109375 L 6.640625 -15.5625 L 5.90625 -17.734375 L 5.4375 -20.15625 L 5.0625 -22.5625 L 6.03125 -25.109375 L 8.203125 -26.0625 L 17.5 -26.546875 L 19.796875 -26.1875 L 21.96875 -26.4375 L 24.375 -25.46875 L 28.359375 -21.125 L 30.40625 -19.796875 L 32.46875 -18.703125 L 38.625 -18.109375 L 40.796875 -18.46875 L 44.53125 -18.703125 L 48.640625 -20.515625 L 50.203125 -22.328125 L 51.171875 -25.34375 L 50.453125 -28.359375 L 48.875 -29.8125 L 44.53125 -31.859375 L 25.578125 -34.03125 L 21.234375 -35.484375 L 13.03125 -39.953125 L 8.5625 -45.5 L 6.640625 -49.71875 L 5.796875 -54.546875 L 5.671875 -58.296875 L 6.03125 -64.203125 L 8.203125 -70.84375 L 12.4375 -76.515625 L 18.21875 -80.5 L 22.328125 -82.90625 L 26.90625 -84.359375 L 29.078125 -84.71875 L 31.5 -84.84375 L 34.15625 -85.5625 L 43.453125 -85.328125 L 48.15625 -84.359375 L 54.90625 -82.0625 L 62.875 -76.515625 L 65.53125 -72.890625 L 68.90625 -66.625 L 69.15625 -64.328125 L 69.640625 -62.03125 L 68.671875 -59.984375 L 66.375 -58.296875 L 64.203125 -58.53125 L 61.796875 -58.53125 L 58.53125 -58.78125 L 52.859375 -58.296875 L 50.203125 -59.859375 L 48.390625 -62.28125 L 46.34375 -63.96875 L 44.171875 -65.40625 L 42 -66.015625 L 38.140625 -66.5 L 34.28125 -66.375 L 32.109375 -65.890625 L 30.171875 -64.8125 L 28.359375 -63.484375 L 26.90625 -61.90625 L 26.3125 -58.65625 L 26.796875 -55.03125 L 28.609375 -53.34375 L 33.0625 -51.171875 L 39.46875 -49.84375 L 42.96875 -49.84375 L 45.5 -49.359375 L 47.90625 -49.234375 L 50.328125 -48.875 L 59.734375 -45.984375 L 61.90625 -44.65625 L 63.84375 -43.6875 L 66.015625 -41.765625 L 69.15625 -38.140625 L 70.484375 -36.203125 L 72.296875 -29.203125 L 72.53125 -25.34375 L 71.8125 -19.3125 L 71.078125 -17.265625 L 70.359375 -15.078125 L 69.03125 -12.4375 L 67.828125 -10.734375 L 64.328125 -7.125 L 56.125 -2.171875 L 53.828125 -1.09375 L 51.65625 -0.84375 L 49.234375 0.125 L 46.828125 0.484375 L 44.40625 1.09375 L 42 1.328125 Z M 32.46875 1.09375 "/></g></g></g><g fill="#ffffff" fill-opacity="1"><g transform="translate(92.233497, 135.086338)"><g><path d="M 9.046875 -3.734375 L 8.8125 -6.03125 L 9.046875 -32.46875 L 8.6875 -36.078125 L 9.171875 -59.140625 L 8.8125 -64.203125 L 9.046875 -71.328125 L 8.9375 -73.5 L 9.046875 -76.03125 L 8.8125 -78.203125 L 8.8125 -80.859375 L 10.015625 -83.390625 L 12.671875 -84.609375 L 27.28125 -84.359375 L 29.453125 -84.84375 L 34.15625 -84.234375 L 36.328125 -84.71875 L 48.75 -84.359375 L 53.46875 -83.28125 L 55.515625 -82.546875 L 57.8125 -81.46875 L 59.859375 -80.25 L 61.546875 -78.921875 L 63.359375 -77.71875 L 65.171875 -76.03125 L 69.15625 -70.484375 L 70 -67.953125 L 70.96875 -63.609375 L 71.203125 -59.859375 L 71.078125 -55.75 L 69.640625 -51.40625 L 67.34375 -46.703125 L 66.5 -44.40625 L 67.703125 -41.640625 L 69.640625 -39.953125 L 71.203125 -38.140625 L 73.375 -33.1875 L 74.703125 -28.84375 L 74.46875 -19.0625 L 73.5 -16.78125 L 72.78125 -14.484375 L 71.5625 -12.0625 L 68.3125 -7.609375 L 63.484375 -3.734375 L 61.3125 -2.65625 L 54.546875 -0.71875 L 52.375 -0.359375 L 39.953125 0.234375 L 37.53125 -0.125 L 20.03125 0.125 L 16.40625 -0.234375 L 12.4375 0.125 L 10.140625 -1.328125 Z M 33.796875 -51.53125 L 43.078125 -51.890625 L 46.578125 -53.109375 L 48.390625 -54.546875 L 49.234375 -58.046875 L 48.875 -61.671875 L 47.90625 -63.609375 L 45.984375 -64.5625 L 33.546875 -65.40625 L 31.265625 -63.96875 L 29.8125 -60.46875 L 29.9375 -56.359375 L 31.265625 -52.984375 Z M 33.4375 -19.3125 L 42.71875 -19.0625 L 49.359375 -19.671875 L 51.40625 -21 L 52.734375 -22.6875 L 53.34375 -26.1875 L 52.625 -29.203125 L 51.40625 -31.375 L 49.359375 -32.21875 L 38.015625 -33.3125 L 35.484375 -33.0625 L 33.1875 -33.4375 L 31.140625 -31.859375 L 30.046875 -29.8125 L 29.6875 -22.5625 L 31.265625 -20.15625 Z M 33.4375 -19.3125 "/></g></g></g></svg>