<svg xmlns="http://www.w3.org/2000/svg" xmlns:xlink="http://www.w3.org/1999/xlink" width="50" zoomAndPan="magnify" viewBox="0 0 37.5 37.499999" height="50" preserveAspectRatio="xMidYMid meet" version="1.0"><defs><clipPath id="9e11855ab9"><path d="M 14 26 L 35 26 L 35 37.007812 L 14 37.007812 Z M 14 26 " clip-rule="nonzero"/></clipPath><clipPath id="27491fe163"><path d="M 25 17 L 36.929688 17 L 36.929688 25 L 25 25 Z M 25 17 " clip-rule="nonzero"/></clipPath><clipPath id="ac3b4636d7"><path d="M 0 0.726562 L 33 0.726562 L 33 37 L 0 37 Z M 0 0.726562 " clip-rule="nonzero"/></clipPath><clipPath id="1584f5ccc2"><path d="M 25 19 L 36.929688 19 L 36.929688 25 L 25 25 Z M 25 19 " clip-rule="nonzero"/></clipPath><clipPath id="a5b5a1e5cd"><path d="M 25 17 L 36.929688 17 L 36.929688 24 L 25 24 Z M 25 17 " clip-rule="nonzero"/></clipPath><clipPath id="e08fda36a2"><path d="M 15 0.726562 L 20 0.726562 L 20 3 L 15 3 Z M 15 0.726562 " clip-rule="nonzero"/></clipPath><clipPath id="06b9dbdc36"><path d="M 9 0.726562 L 16 0.726562 L 16 7 L 9 7 Z M 9 0.726562 " clip-rule="nonzero"/></clipPath><clipPath id="25be1068ce"><path d="M 20 29 L 35 29 L 35 37.007812 L 20 37.007812 Z M 20 29 " clip-rule="nonzero"/></clipPath><clipPath id="a89529ad78"><path d="M 14 26 L 35 26 L 35 37.007812 L 14 37.007812 Z M 14 26 " clip-rule="nonzero"/></clipPath><clipPath id="7962c7030d"><path d="M 14 34 L 21 34 L 21 37.007812 L 14 37.007812 Z M 14 34 " clip-rule="nonzero"/></clipPath></defs><g clip-path="url(#9e11855ab9)"><path fill="#bac1ce" d="M 28.929688 26.144531 L 34.535156 29.371094 L 34.535156 29.546875 L 20.5 37.730469 L 16.171875 35.246094 L 15.3125 35.75 C 15.207031 35.808594 15.058594 35.804688 14.890625 35.703125 C 14.5625 35.515625 14.296875 35.054688 14.296875 34.675781 C 14.300781 34.480469 14.371094 34.347656 14.484375 34.289062 L 28.507812 26.105469 C 28.613281 26.039062 28.761719 26.050781 28.929688 26.144531 Z M 28.929688 26.144531 " fill-opacity="1" fill-rule="nonzero"/></g><g clip-path="url(#27491fe163)"><path fill="#bac1ce" d="M 36.867188 20.03125 C 36.867188 20.089844 36.832031 20.144531 36.753906 20.1875 L 30.011719 24.101562 C 29.859375 24.1875 29.621094 24.1875 29.472656 24.101562 L 25.289062 21.726562 C 25.234375 21.703125 25.203125 21.644531 25.203125 21.589844 L 25.199219 21.421875 L 32.484375 17.195312 L 36.753906 19.6875 C 36.828125 19.730469 36.863281 19.785156 36.863281 19.84375 Z M 36.867188 20.03125 " fill-opacity="1" fill-rule="nonzero"/></g><g clip-path="url(#ac3b4636d7)"><path fill="#bac1ce" d="M 14.738281 31.0625 L 12.171875 32.546875 C 12.074219 32.601562 11.984375 32.601562 11.925781 32.558594 L 11.292969 32.191406 C 11.230469 32.152344 11.191406 32.082031 11.191406 31.980469 L 11.171875 24.03125 C 11.171875 23.820312 11.320312 23.5625 11.496094 23.460938 L 13.894531 22.070312 C 13.886719 22.050781 13.882812 22.027344 13.882812 22.003906 L 13.882812 15.261719 L 11.558594 16.609375 L 11.570312 19.902344 C 11.570312 19.972656 11.53125 20.035156 11.472656 20.070312 L 0.324219 26.535156 L 0.332031 29.589844 L 2.832031 31.058594 L 4.53125 30.074219 C 4.691406 29.980469 4.949219 29.980469 5.109375 30.074219 L 11.675781 33.902344 C 11.757812 33.953125 11.792969 34.011719 11.792969 34.078125 L 11.796875 34.558594 C 11.796875 34.625 11.753906 34.683594 11.671875 34.730469 L 7.90625 36.914062 C 7.746094 37.011719 7.488281 37.011719 7.328125 36.914062 L 0.761719 33.085938 C 0.679688 33.039062 0.644531 32.980469 0.644531 32.917969 L 0.644531 32.429688 C 0.644531 32.445312 0.652344 32.460938 0.65625 32.476562 C 0.632812 32.398438 0.660156 32.316406 0.761719 32.257812 L 2.449219 31.28125 L 0.0429688 29.867188 C -0.015625 29.832031 -0.0507812 29.769531 -0.0507812 29.699219 L -0.0625 26.421875 C -0.0625 26.355469 -0.0234375 26.289062 0.0351562 26.257812 L 11.183594 19.792969 L 11.175781 16.828125 L 6.476562 19.554688 C 5.515625 20.109375 4.652344 20.109375 4.078125 19.65625 C 4.132812 19.699219 4.1875 19.742188 4.25 19.773438 L 3.027344 19.0625 C 2.464844 18.734375 2.113281 18.035156 2.113281 17.039062 C 2.105469 15.050781 3.503906 12.613281 5.234375 11.613281 C 5.300781 11.570312 5.367188 11.535156 5.433594 11.503906 C 5.378906 11.277344 5.347656 11.03125 5.347656 10.757812 C 5.339844 8.933594 6.621094 6.703125 8.1875 5.796875 C 8.496094 5.617188 8.796875 5.503906 9.066406 5.441406 L 9.070312 5.441406 C 9.484375 3.785156 10.644531 2.085938 12.011719 1.292969 C 12.882812 0.785156 13.679688 0.742188 14.246094 1.074219 L 15.375 1.730469 C 15.597656 1.535156 15.832031 1.367188 16.070312 1.226562 C 16.867188 0.765625 17.585938 0.726562 18.101562 1.027344 L 19.324219 1.742188 C 18.964844 1.53125 18.511719 1.488281 18.003906 1.636719 C 19.09375 1.324219 19.925781 1.882812 20.113281 3.070312 C 20.566406 3.128906 20.972656 3.261719 21.230469 3.410156 L 22.429688 4.113281 C 23.003906 4.4375 23.363281 5.136719 23.367188 6.136719 C 23.375 8.144531 21.972656 10.566406 20.246094 11.570312 L 17.09375 13.398438 L 17.082031 17.125 L 27.777344 10.898438 C 27.835938 10.863281 27.90625 10.863281 27.96875 10.898438 C 28.027344 10.933594 28.0625 10.996094 28.0625 11.066406 L 28.070312 14.167969 L 31.933594 11.929688 C 32.007812 11.882812 32.078125 11.878906 32.128906 11.90625 L 32.390625 12.0625 C 32.390625 12.0625 32.390625 12.0625 32.394531 12.0625 C 32.4375 12.089844 32.472656 12.152344 32.472656 12.234375 L 32.484375 17.195312 L 25.199219 21.417969 L 25.011719 21.308594 C 24.964844 21.28125 24.933594 21.226562 24.933594 21.171875 L 24.921875 16.304688 C 24.921875 16.132812 25.039062 15.921875 25.1875 15.835938 L 27.683594 14.390625 L 27.683594 11.402344 L 16.988281 17.625 C 16.957031 17.644531 16.921875 17.652344 16.890625 17.652344 C 16.855469 17.652344 16.824219 17.644531 16.792969 17.625 C 16.734375 17.59375 16.699219 17.527344 16.699219 17.460938 L 16.710938 13.621094 L 14.265625 15.039062 L 14.265625 21.855469 L 22.152344 17.285156 C 22.238281 17.230469 22.324219 17.230469 22.382812 17.265625 L 23.007812 17.632812 C 23.078125 17.660156 23.125 17.734375 23.125 17.851562 L 23.148438 25.800781 C 23.148438 26.011719 23.003906 26.265625 22.820312 26.375 L 20.207031 27.890625 L 21.316406 28.535156 L 21.324219 29 L 16.25 31.945312 Z M 14.738281 31.0625 " fill-opacity="1" fill-rule="nonzero"/></g><path fill="#416e84" d="M 14.074219 22.199219 C 13.96875 22.199219 13.882812 22.113281 13.882812 22.007812 L 13.882812 14.191406 C 13.882812 14.085938 13.96875 14 14.074219 14 C 14.179688 14 14.265625 14.085938 14.265625 14.191406 L 14.265625 22.007812 C 14.265625 22.113281 14.179688 22.199219 14.074219 22.199219 Z M 14.074219 22.199219 " fill-opacity="1" fill-rule="nonzero"/><path fill="#416e84" d="M 16.890625 17.652344 C 16.859375 17.652344 16.824219 17.644531 16.796875 17.625 C 16.734375 17.59375 16.699219 17.527344 16.699219 17.460938 L 16.71875 10.832031 C 16.71875 10.722656 16.804688 10.636719 16.910156 10.636719 C 17.015625 10.640625 17.101562 10.726562 17.101562 10.832031 L 17.082031 17.125 L 27.777344 10.898438 C 27.835938 10.867188 27.90625 10.863281 27.96875 10.898438 C 28.027344 10.933594 28.0625 10.996094 28.0625 11.066406 L 28.070312 14.417969 C 28.070312 14.523438 27.984375 14.609375 27.878906 14.609375 C 27.773438 14.609375 27.6875 14.523438 27.6875 14.417969 L 27.679688 11.398438 L 16.988281 17.625 C 16.957031 17.644531 16.925781 17.652344 16.890625 17.652344 Z M 16.890625 17.652344 " fill-opacity="1" fill-rule="nonzero"/><path fill="#474b59" d="M 16.25 31.945312 L 13.855469 30.546875 L 13.84375 30.078125 L 16.242188 31.476562 Z M 16.25 31.945312 " fill-opacity="1" fill-rule="nonzero"/><path fill="#525566" d="M 16.242188 31.476562 L 13.84375 30.078125 L 18.921875 27.136719 L 21.316406 28.535156 Z M 16.242188 31.476562 " fill-opacity="1" fill-rule="nonzero"/><path fill="#3f434f" d="M 21.316406 28.535156 L 21.328125 29 L 16.25 31.945312 L 16.242188 31.476562 Z M 21.316406 28.535156 " fill-opacity="1" fill-rule="nonzero"/><path fill="#bac1ce" d="M 23.027344 17.644531 C 22.972656 17.609375 22.886719 17.609375 22.792969 17.664062 L 12.144531 23.835938 C 11.964844 23.941406 11.816406 24.199219 11.816406 24.40625 L 11.839844 32.351562 C 11.839844 32.460938 11.875 32.53125 11.9375 32.566406 L 11.292969 32.191406 C 11.226562 32.152344 11.191406 32.082031 11.191406 31.984375 L 11.171875 24.027344 C 11.171875 23.824219 11.320312 23.566406 11.496094 23.457031 L 22.152344 17.289062 C 22.238281 17.230469 22.324219 17.230469 22.382812 17.265625 Z M 23.027344 17.644531 " fill-opacity="1" fill-rule="nonzero"/><path fill="#5b5e71" d="M 22.796875 17.664062 C 22.976562 17.558594 23.125 17.640625 23.125 17.851562 L 23.148438 25.800781 C 23.148438 26.011719 23.003906 26.265625 22.820312 26.371094 L 12.171875 32.546875 C 11.988281 32.652344 11.839844 32.566406 11.839844 32.355469 L 11.816406 24.40625 C 11.816406 24.199219 11.964844 23.945312 12.144531 23.839844 Z M 22.796875 17.664062 " fill-opacity="1" fill-rule="nonzero"/><path fill="#748bfd" d="M 12.320312 24.316406 L 12.339844 31.863281 L 22.644531 25.894531 L 22.621094 18.347656 Z M 12.320312 24.316406 " fill-opacity="1" fill-rule="nonzero"/><path fill="#e4e8f4" d="M 13.746094 25.761719 L 13.746094 25.90625 L 12.882812 26.410156 L 12.882812 26.265625 Z M 13.746094 25.761719 " fill-opacity="1" fill-rule="nonzero"/><path fill="#e4e8f4" d="M 14.429688 29.394531 L 14.429688 29.535156 L 12.894531 30.425781 L 12.894531 30.285156 Z M 14.429688 29.394531 " fill-opacity="1" fill-rule="nonzero"/><path fill="#e4e8f4" d="M 19.054688 27.289062 L 19.058594 27.429688 L 18.132812 27.964844 L 18.132812 27.824219 Z M 19.054688 27.289062 " fill-opacity="1" fill-rule="nonzero"/><path fill="#e4e8f4" d="M 17.898438 27.957031 L 17.898438 28.101562 L 16.238281 29.0625 L 16.238281 28.921875 Z M 17.898438 27.957031 " fill-opacity="1" fill-rule="nonzero"/><path fill="#e4e8f4" d="M 19.054688 26.710938 L 19.054688 26.855469 L 17.144531 27.964844 L 17.144531 27.820312 Z M 19.054688 26.710938 " fill-opacity="1" fill-rule="nonzero"/><path fill="#e4e8f4" d="M 17.191406 26.640625 L 17.191406 26.785156 L 14.835938 28.152344 L 14.835938 28.007812 Z M 17.191406 26.640625 " fill-opacity="1" fill-rule="nonzero"/><path fill="#e4e8f4" d="M 18.328125 22.53125 L 18.328125 22.675781 L 17.21875 23.320312 L 17.21875 23.175781 Z M 18.328125 22.53125 " fill-opacity="1" fill-rule="nonzero"/><path fill="#e4e8f4" d="M 19.050781 25.5625 L 19.050781 25.707031 L 17.566406 26.566406 L 17.566406 26.425781 Z M 19.050781 25.5625 " fill-opacity="1" fill-rule="nonzero"/><path fill="#e4e8f4" d="M 17.980469 26.761719 L 17.980469 26.90625 L 16.394531 27.824219 L 16.394531 27.679688 Z M 17.980469 26.761719 " fill-opacity="1" fill-rule="nonzero"/><path fill="#e4e8f4" d="M 19.054688 26.140625 L 19.054688 26.28125 L 18.125 26.820312 L 18.121094 26.679688 Z M 19.054688 26.140625 " fill-opacity="1" fill-rule="nonzero"/><path fill="#e4e8f4" d="M 18.378906 25.378906 L 18.378906 25.523438 L 16.160156 26.808594 L 16.160156 26.667969 Z M 18.378906 25.378906 " fill-opacity="1" fill-rule="nonzero"/><path fill="#e4e8f4" d="M 19.050781 24.992188 L 19.050781 25.132812 L 18.5625 25.414062 L 18.5625 25.273438 Z M 19.050781 24.992188 " fill-opacity="1" fill-rule="nonzero"/><path fill="#e4e8f4" d="M 19.046875 23.839844 L 19.046875 23.984375 L 18.136719 24.511719 L 18.136719 24.367188 Z M 19.046875 23.839844 " fill-opacity="1" fill-rule="nonzero"/><path fill="#e4e8f4" d="M 19.046875 24.417969 L 19.050781 24.558594 L 17.519531 25.445312 L 17.519531 25.300781 Z M 19.046875 24.417969 " fill-opacity="1" fill-rule="nonzero"/><path fill="#e4e8f4" d="M 19.046875 23.269531 L 19.046875 23.410156 L 17.160156 24.5 L 17.160156 24.359375 Z M 19.046875 23.269531 " fill-opacity="1" fill-rule="nonzero"/><path fill="#e4e8f4" d="M 19.042969 22.691406 L 19.042969 22.835938 L 16.289062 24.433594 L 16.289062 24.289062 Z M 19.042969 22.691406 " fill-opacity="1" fill-rule="nonzero"/><path fill="#e4e8f4" d="M 17.867188 24.527344 L 17.867188 24.667969 L 16.070312 25.710938 L 16.070312 25.566406 Z M 17.867188 24.527344 " fill-opacity="1" fill-rule="nonzero"/><path fill="#e4e8f4" d="M 17.285156 25.4375 L 17.285156 25.578125 L 15.3125 26.722656 L 15.3125 26.582031 Z M 17.285156 25.4375 " fill-opacity="1" fill-rule="nonzero"/><path fill="#e4e8f4" d="M 15.890625 25.671875 L 15.890625 25.8125 L 14.355469 26.703125 L 14.355469 26.558594 Z M 15.890625 25.671875 " fill-opacity="1" fill-rule="nonzero"/><path fill="#e4e8f4" d="M 15.902344 24.515625 L 15.902344 24.660156 L 14.039062 25.738281 L 14.039062 25.59375 Z M 15.902344 24.515625 " fill-opacity="1" fill-rule="nonzero"/><path fill="#e4e8f4" d="M 13.683594 29.253906 L 13.683594 29.394531 L 12.890625 29.851562 L 12.890625 29.710938 Z M 13.683594 29.253906 " fill-opacity="1" fill-rule="nonzero"/><path fill="#e4e8f4" d="M 16.058594 29.027344 L 16.058594 29.167969 L 14.023438 30.347656 L 14.023438 30.207031 Z M 16.058594 29.027344 " fill-opacity="1" fill-rule="nonzero"/><path fill="#e4e8f4" d="M 16.851562 27.992188 L 16.851562 28.132812 L 14.738281 29.359375 L 14.738281 29.214844 Z M 16.851562 27.992188 " fill-opacity="1" fill-rule="nonzero"/><path fill="#e4e8f4" d="M 16.226562 27.777344 L 16.226562 27.921875 L 13.898438 29.269531 L 13.898438 29.128906 Z M 16.226562 27.777344 " fill-opacity="1" fill-rule="nonzero"/><path fill="#e4e8f4" d="M 14.390625 28.265625 L 14.390625 28.410156 L 12.890625 29.277344 L 12.890625 29.136719 Z M 14.390625 28.265625 " fill-opacity="1" fill-rule="nonzero"/><path fill="#e4e8f4" d="M 13.683594 28.101562 L 13.683594 28.242188 L 12.890625 28.707031 L 12.890625 28.5625 Z M 13.683594 28.101562 " fill-opacity="1" fill-rule="nonzero"/><path fill="#e4e8f4" d="M 14.882812 26.832031 L 14.882812 26.972656 L 12.886719 28.128906 L 12.886719 27.988281 Z M 14.882812 26.832031 " fill-opacity="1" fill-rule="nonzero"/><path fill="#e4e8f4" d="M 15.742188 26.910156 L 15.742188 27.050781 L 14.074219 28.019531 L 14.074219 27.875 Z M 15.742188 26.910156 " fill-opacity="1" fill-rule="nonzero"/><path fill="#e4e8f4" d="M 14.140625 26.6875 L 14.140625 26.832031 L 12.886719 27.558594 L 12.886719 27.414062 Z M 14.140625 26.6875 " fill-opacity="1" fill-rule="nonzero"/><path fill="#e4e8f4" d="M 15.265625 25.457031 L 15.265625 25.601562 L 12.882812 26.980469 L 12.882812 26.839844 Z M 15.265625 25.457031 " fill-opacity="1" fill-rule="nonzero"/><path fill="#e4e8f4" d="M 14.980469 24.472656 L 14.980469 24.617188 L 12.882812 25.832031 L 12.878906 25.691406 Z M 14.980469 24.472656 " fill-opacity="1" fill-rule="nonzero"/><path fill="#e4e8f4" d="M 14.34375 24.265625 L 14.34375 24.410156 L 12.878906 25.261719 L 12.878906 25.117188 Z M 14.34375 24.265625 " fill-opacity="1" fill-rule="nonzero"/><path fill="#e4e8f4" d="M 16.429688 23.058594 L 16.429688 23.203125 L 14.632812 24.246094 L 14.632812 24.101562 Z M 16.429688 23.058594 " fill-opacity="1" fill-rule="nonzero"/><path fill="#e4e8f4" d="M 15.0625 23.277344 L 15.0625 23.417969 L 12.878906 24.683594 L 12.878906 24.542969 Z M 15.0625 23.277344 " fill-opacity="1" fill-rule="nonzero"/><path fill="#e4e8f4" d="M 19.042969 22.121094 L 19.042969 22.261719 L 18.625 22.503906 L 18.625 22.363281 Z M 19.042969 22.121094 " fill-opacity="1" fill-rule="nonzero"/><path fill="#e4e8f4" d="M 19.039062 21.542969 L 19.039062 21.6875 L 16.660156 23.070312 L 16.65625 22.925781 Z M 19.039062 21.542969 " fill-opacity="1" fill-rule="nonzero"/><path fill="#e4e8f4" d="M 19.039062 20.972656 L 19.039062 21.113281 L 18.039062 21.695312 L 18.039062 21.550781 Z M 19.039062 20.972656 " fill-opacity="1" fill-rule="nonzero"/><path fill="#e4e8f4" d="M 17.027344 23.289062 L 17.027344 23.429688 L 15.347656 24.40625 L 15.34375 24.261719 Z M 17.027344 23.289062 " fill-opacity="1" fill-rule="nonzero"/><path fill="#e4e8f4" d="M 17.726562 21.730469 L 17.726562 21.875 L 15.28125 23.292969 L 15.28125 23.148438 Z M 17.726562 21.730469 " fill-opacity="1" fill-rule="nonzero"/><path fill="#e4e8f4" d="M 16.902344 24.507812 L 16.902344 24.652344 L 15.390625 25.527344 L 15.390625 25.386719 Z M 16.902344 24.507812 " fill-opacity="1" fill-rule="nonzero"/><path fill="#e4e8f4" d="M 13.730469 30.375 L 13.730469 30.515625 L 12.894531 31 L 12.894531 30.859375 Z M 13.730469 30.375 " fill-opacity="1" fill-rule="nonzero"/><path fill="#e4e8f4" d="M 22.078125 19.207031 L 22.078125 19.351562 L 19.898438 20.613281 L 19.898438 20.472656 Z M 22.078125 19.207031 " fill-opacity="1" fill-rule="nonzero"/><path fill="#e4e8f4" d="M 21.417969 20.167969 L 21.417969 20.3125 L 19.902344 21.191406 L 19.898438 21.046875 Z M 21.417969 20.167969 " fill-opacity="1" fill-rule="nonzero"/><path fill="#e4e8f4" d="M 21.203125 22.589844 L 21.207031 22.734375 L 19.90625 23.488281 L 19.90625 23.34375 Z M 21.203125 22.589844 " fill-opacity="1" fill-rule="nonzero"/><path fill="#e4e8f4" d="M 21.976562 22.71875 L 21.976562 22.859375 L 19.910156 24.058594 L 19.910156 23.917969 Z M 21.976562 22.71875 " fill-opacity="1" fill-rule="nonzero"/><path fill="#e4e8f4" d="M 22.085938 21.503906 L 22.085938 21.648438 L 19.90625 22.910156 L 19.90625 22.769531 Z M 22.085938 21.503906 " fill-opacity="1" fill-rule="nonzero"/><path fill="#e4e8f4" d="M 20.796875 21.675781 L 20.796875 21.820312 L 19.902344 22.339844 L 19.902344 22.195312 Z M 20.796875 21.675781 " fill-opacity="1" fill-rule="nonzero"/><path fill="#e4e8f4" d="M 22.074219 20.359375 L 22.078125 20.503906 L 19.902344 21.761719 L 19.902344 21.621094 Z M 22.074219 20.359375 " fill-opacity="1" fill-rule="nonzero"/><path fill="#e4e8f4" d="M 21.464844 24.164062 L 21.464844 24.308594 L 19.910156 25.207031 L 19.910156 25.066406 Z M 21.464844 24.164062 " fill-opacity="1" fill-rule="nonzero"/><path fill="#e4e8f4" d="M 20.734375 24.015625 L 20.734375 24.15625 L 19.910156 24.636719 L 19.910156 24.492188 Z M 20.734375 24.015625 " fill-opacity="1" fill-rule="nonzero"/><path fill="#e4e8f4" d="M 20.734375 25.167969 L 20.734375 25.308594 L 19.914062 25.78125 L 19.914062 25.640625 Z M 20.734375 25.167969 " fill-opacity="1" fill-rule="nonzero"/><path fill="#e4e8f4" d="M 20.78125 26.289062 L 20.78125 26.429688 L 19.917969 26.929688 L 19.917969 26.789062 Z M 20.78125 26.289062 " fill-opacity="1" fill-rule="nonzero"/><path fill="#e4e8f4" d="M 21.503906 25.292969 L 21.507812 25.433594 L 19.914062 26.355469 L 19.914062 26.214844 Z M 21.503906 25.292969 " fill-opacity="1" fill-rule="nonzero"/><path fill="#bac1ce" d="M 32.390625 12.0625 C 32.34375 12.035156 32.273438 12.039062 32.199219 12.082031 L 25.453125 15.992188 C 25.304688 16.078125 25.1875 16.285156 25.1875 16.460938 L 25.199219 21.417969 L 25.015625 21.308594 C 24.964844 21.28125 24.933594 21.226562 24.933594 21.171875 L 24.921875 16.304688 C 24.921875 16.132812 25.039062 15.921875 25.1875 15.835938 L 31.933594 11.925781 C 32.007812 11.882812 32.078125 11.878906 32.125 11.90625 Z M 32.390625 12.0625 " fill-opacity="1" fill-rule="nonzero"/><path fill="#5b5e71" d="M 32.199219 12.082031 C 32.347656 11.996094 32.46875 12.0625 32.472656 12.234375 L 32.484375 17.195312 L 25.199219 21.417969 L 25.1875 16.460938 C 25.1875 16.289062 25.304688 16.078125 25.457031 15.992188 Z M 32.199219 12.082031 " fill-opacity="1" fill-rule="nonzero"/><path fill="#fed57a" d="M 25.519531 16.457031 C 25.519531 16.40625 25.574219 16.308594 25.621094 16.28125 L 32.140625 12.5 L 32.152344 17.003906 L 25.53125 20.839844 Z M 25.519531 16.457031 " fill-opacity="1" fill-rule="nonzero"/><g clip-path="url(#1584f5ccc2)"><path fill="#e4e8f4" d="M 25.199219 21.417969 L 25.203125 21.589844 C 25.203125 21.648438 25.234375 21.699219 25.285156 21.726562 L 29.472656 24.101562 C 29.621094 24.1875 29.859375 24.1875 30.011719 24.101562 L 36.753906 20.191406 C 36.832031 20.148438 36.867188 20.089844 36.867188 20.03125 L 36.867188 19.84375 C 36.867188 19.902344 36.828125 19.957031 36.753906 20 L 30.007812 23.902344 C 29.859375 23.984375 29.617188 23.984375 29.472656 23.902344 Z M 25.199219 21.417969 " fill-opacity="1" fill-rule="nonzero"/></g><g clip-path="url(#a5b5a1e5cd)"><path fill="#cad0dd" d="M 25.199219 21.417969 L 29.472656 23.910156 C 29.617188 23.996094 29.859375 23.996094 30.007812 23.910156 L 36.753906 20 C 36.902344 19.914062 36.902344 19.773438 36.753906 19.6875 L 32.484375 17.195312 Z M 25.199219 21.417969 " fill-opacity="1" fill-rule="nonzero"/></g><path fill="#bac1ce" d="M 33.558594 21.480469 L 33.519531 21.503906 L 32.355469 22.179688 C 32.292969 22.214844 32.210938 22.214844 32.148438 22.179688 L 31.417969 21.757812 L 31.378906 21.734375 C 31.308594 21.695312 31.308594 21.59375 31.378906 21.554688 L 32.578125 20.855469 C 32.644531 20.816406 32.726562 20.816406 32.792969 20.851562 L 33.554688 21.296875 C 33.628906 21.335938 33.628906 21.4375 33.558594 21.480469 Z M 33.558594 21.480469 " fill-opacity="1" fill-rule="nonzero"/><path fill="#5b5e71" d="M 30.9375 19.164062 C 30.925781 19.171875 30.925781 19.1875 30.9375 19.195312 L 31.203125 19.351562 C 31.21875 19.359375 31.242188 19.359375 31.257812 19.347656 L 31.523438 19.195312 C 31.539062 19.1875 31.539062 19.171875 31.523438 19.164062 L 31.257812 19.011719 C 31.242188 19 31.222656 19 31.207031 19.007812 Z M 30.9375 19.164062 " fill-opacity="1" fill-rule="nonzero"/><path fill="#5b5e71" d="M 30.710938 19.863281 C 30.695312 19.875 30.695312 19.886719 30.710938 19.894531 L 30.976562 20.050781 C 30.988281 20.058594 31.011719 20.058594 31.027344 20.050781 L 31.292969 19.894531 C 31.308594 19.886719 31.308594 19.871094 31.296875 19.863281 L 31.03125 19.710938 C 31.015625 19.703125 30.992188 19.703125 30.976562 19.710938 Z M 30.710938 19.863281 " fill-opacity="1" fill-rule="nonzero"/><path fill="#5b5e71" d="M 31.203125 19.578125 C 31.1875 19.585938 31.1875 19.601562 31.203125 19.609375 L 31.46875 19.765625 C 31.484375 19.773438 31.507812 19.773438 31.519531 19.761719 L 32.011719 19.480469 C 32.027344 19.46875 32.023438 19.457031 32.011719 19.449219 L 31.746094 19.292969 C 31.730469 19.285156 31.707031 19.285156 31.695312 19.292969 Z M 31.203125 19.578125 " fill-opacity="1" fill-rule="nonzero"/><path fill="#5b5e71" d="M 28.539062 21.691406 C 28.527344 21.699219 28.527344 21.710938 28.539062 21.71875 L 28.804688 21.875 C 28.820312 21.882812 28.84375 21.882812 28.855469 21.875 L 29.125 21.71875 C 29.140625 21.710938 29.136719 21.699219 29.125 21.691406 L 28.859375 21.535156 C 28.84375 21.527344 28.820312 21.527344 28.808594 21.535156 Z M 28.539062 21.691406 " fill-opacity="1" fill-rule="nonzero"/><path fill="#5b5e71" d="M 27.113281 21.949219 C 27.101562 21.957031 27.101562 21.972656 27.113281 21.980469 L 27.378906 22.132812 C 27.394531 22.140625 27.417969 22.140625 27.429688 22.132812 L 27.816406 21.910156 C 27.828125 21.902344 27.828125 21.890625 27.816406 21.882812 L 27.550781 21.726562 C 27.535156 21.71875 27.511719 21.71875 27.5 21.726562 Z M 27.113281 21.949219 " fill-opacity="1" fill-rule="nonzero"/><path fill="#5b5e71" d="M 27.804688 21.550781 C 27.789062 21.558594 27.789062 21.570312 27.804688 21.578125 L 28.070312 21.734375 C 28.082031 21.742188 28.105469 21.742188 28.121094 21.734375 L 28.386719 21.578125 C 28.402344 21.570312 28.402344 21.558594 28.386719 21.550781 L 28.121094 21.394531 C 28.109375 21.386719 28.085938 21.386719 28.070312 21.394531 Z M 27.804688 21.550781 " fill-opacity="1" fill-rule="nonzero"/><path fill="#5b5e71" d="M 28.289062 21.269531 C 28.273438 21.277344 28.273438 21.289062 28.289062 21.296875 L 28.554688 21.453125 C 28.566406 21.460938 28.589844 21.460938 28.605469 21.453125 L 28.871094 21.296875 C 28.886719 21.289062 28.886719 21.277344 28.875 21.269531 L 28.609375 21.113281 C 28.59375 21.105469 28.570312 21.105469 28.554688 21.113281 Z M 28.289062 21.269531 " fill-opacity="1" fill-rule="nonzero"/><path fill="#5b5e71" d="M 31.921875 20.296875 C 31.90625 20.304688 31.90625 20.320312 31.921875 20.328125 L 32.1875 20.484375 C 32.199219 20.492188 32.222656 20.492188 32.234375 20.484375 L 32.988281 20.046875 C 33 20.039062 33 20.027344 32.988281 20.019531 L 32.722656 19.863281 C 32.707031 19.855469 32.683594 19.855469 32.671875 19.863281 Z M 31.921875 20.296875 " fill-opacity="1" fill-rule="nonzero"/><path fill="#5b5e71" d="M 29.742188 20.425781 C 29.726562 20.433594 29.726562 20.449219 29.742188 20.457031 L 30.007812 20.609375 C 30.019531 20.617188 30.042969 20.621094 30.058594 20.609375 L 30.324219 20.457031 C 30.339844 20.449219 30.339844 20.433594 30.324219 20.425781 L 30.058594 20.273438 C 30.046875 20.261719 30.023438 20.261719 30.007812 20.269531 Z M 29.742188 20.425781 " fill-opacity="1" fill-rule="nonzero"/><path fill="#5b5e71" d="M 30.484375 20.5625 C 30.472656 20.570312 30.472656 20.582031 30.484375 20.589844 L 30.75 20.746094 C 30.765625 20.753906 30.789062 20.753906 30.800781 20.746094 L 31.070312 20.59375 C 31.085938 20.582031 31.082031 20.570312 31.070312 20.5625 L 30.804688 20.40625 C 30.789062 20.398438 30.765625 20.398438 30.753906 20.40625 Z M 30.484375 20.5625 " fill-opacity="1" fill-rule="nonzero"/><path fill="#5b5e71" d="M 29.257812 20.707031 C 29.242188 20.714844 29.242188 20.730469 29.257812 20.738281 L 29.523438 20.890625 C 29.535156 20.898438 29.558594 20.898438 29.574219 20.890625 L 29.839844 20.738281 C 29.855469 20.730469 29.855469 20.714844 29.839844 20.707031 L 29.574219 20.550781 C 29.5625 20.542969 29.539062 20.542969 29.523438 20.550781 Z M 29.257812 20.707031 " fill-opacity="1" fill-rule="nonzero"/><path fill="#5b5e71" d="M 30 20.84375 C 29.984375 20.851562 29.984375 20.867188 30 20.875 L 30.265625 21.027344 C 30.277344 21.039062 30.300781 21.039062 30.316406 21.03125 L 30.585938 20.875 C 30.597656 20.867188 30.597656 20.851562 30.582031 20.84375 L 30.316406 20.6875 C 30.304688 20.679688 30.28125 20.679688 30.265625 20.6875 Z M 30 20.84375 " fill-opacity="1" fill-rule="nonzero"/><path fill="#5b5e71" d="M 28.773438 20.988281 C 28.757812 20.996094 28.757812 21.007812 28.773438 21.019531 L 29.039062 21.171875 C 29.050781 21.179688 29.074219 21.179688 29.089844 21.171875 L 29.355469 21.015625 C 29.371094 21.007812 29.371094 20.996094 29.355469 20.988281 L 29.089844 20.832031 C 29.078125 20.824219 29.054688 20.824219 29.039062 20.832031 Z M 28.773438 20.988281 " fill-opacity="1" fill-rule="nonzero"/><path fill="#5b5e71" d="M 29.511719 21.125 C 29.5 21.132812 29.5 21.148438 29.511719 21.15625 L 29.777344 21.308594 C 29.792969 21.320312 29.816406 21.320312 29.828125 21.3125 L 30.097656 21.15625 C 30.113281 21.148438 30.109375 21.132812 30.097656 21.125 L 29.832031 20.972656 C 29.816406 20.964844 29.792969 20.960938 29.78125 20.972656 Z M 29.511719 21.125 " fill-opacity="1" fill-rule="nonzero"/><path fill="#5b5e71" d="M 29.027344 21.410156 C 29.011719 21.417969 29.011719 21.429688 29.027344 21.4375 L 29.292969 21.59375 C 29.304688 21.601562 29.328125 21.601562 29.34375 21.59375 L 29.609375 21.4375 C 29.625 21.429688 29.625 21.417969 29.609375 21.40625 L 29.34375 21.253906 C 29.332031 21.246094 29.308594 21.246094 29.292969 21.253906 Z M 29.027344 21.410156 " fill-opacity="1" fill-rule="nonzero"/><path fill="#5b5e71" d="M 28.996094 21.996094 C 28.980469 22.003906 28.980469 22.015625 28.996094 22.023438 L 29.261719 22.179688 C 29.273438 22.1875 29.296875 22.1875 29.308594 22.179688 L 32.0625 20.582031 C 32.074219 20.574219 32.074219 20.5625 32.0625 20.554688 L 31.796875 20.398438 C 31.78125 20.390625 31.761719 20.390625 31.746094 20.398438 Z M 28.996094 21.996094 " fill-opacity="1" fill-rule="nonzero"/><path fill="#5b5e71" d="M 30.972656 20.28125 C 30.957031 20.289062 30.957031 20.300781 30.972656 20.308594 L 31.238281 20.464844 C 31.25 20.472656 31.273438 20.472656 31.289062 20.464844 L 31.558594 20.308594 C 31.570312 20.300781 31.570312 20.289062 31.554688 20.28125 L 31.289062 20.125 C 31.277344 20.117188 31.253906 20.117188 31.238281 20.125 Z M 30.972656 20.28125 " fill-opacity="1" fill-rule="nonzero"/><path fill="#5b5e71" d="M 31.460938 19.996094 C 31.445312 20.003906 31.445312 20.019531 31.460938 20.027344 L 31.726562 20.183594 C 31.738281 20.191406 31.761719 20.191406 31.777344 20.183594 L 32.5 19.761719 C 32.511719 19.753906 32.511719 19.742188 32.5 19.734375 L 32.234375 19.578125 C 32.21875 19.570312 32.195312 19.570312 32.183594 19.578125 Z M 31.460938 19.996094 " fill-opacity="1" fill-rule="nonzero"/><path fill="#5b5e71" d="M 29.980469 19.71875 C 29.964844 19.726562 29.964844 19.742188 29.980469 19.75 L 30.246094 19.90625 C 30.261719 19.914062 30.285156 19.914062 30.296875 19.90625 L 30.566406 19.75 C 30.578125 19.742188 30.578125 19.730469 30.566406 19.71875 L 30.300781 19.566406 C 30.285156 19.558594 30.261719 19.558594 30.25 19.566406 Z M 29.980469 19.71875 " fill-opacity="1" fill-rule="nonzero"/><path fill="#5b5e71" d="M 30.460938 19.441406 C 30.445312 19.449219 30.445312 19.464844 30.460938 19.472656 L 30.726562 19.628906 C 30.738281 19.636719 30.761719 19.636719 30.777344 19.628906 L 31.042969 19.472656 C 31.058594 19.464844 31.058594 19.449219 31.042969 19.441406 L 30.777344 19.289062 C 30.765625 19.277344 30.742188 19.277344 30.726562 19.285156 Z M 30.460938 19.441406 " fill-opacity="1" fill-rule="nonzero"/><path fill="#5b5e71" d="M 28.089844 22.519531 C 28.074219 22.527344 28.074219 22.539062 28.089844 22.546875 L 28.355469 22.703125 C 28.367188 22.710938 28.390625 22.710938 28.40625 22.703125 L 29.03125 22.339844 C 29.042969 22.332031 29.042969 22.320312 29.03125 22.3125 L 28.765625 22.15625 C 28.75 22.148438 28.730469 22.148438 28.714844 22.15625 Z M 28.089844 22.519531 " fill-opacity="1" fill-rule="nonzero"/><path fill="#5b5e71" d="M 27.601562 22.234375 C 27.585938 22.242188 27.585938 22.257812 27.601562 22.265625 L 27.867188 22.417969 C 27.882812 22.425781 27.90625 22.425781 27.917969 22.417969 L 28.648438 21.996094 C 28.664062 21.988281 28.664062 21.972656 28.648438 21.964844 L 28.382812 21.808594 C 28.371094 21.800781 28.347656 21.800781 28.332031 21.808594 Z M 27.601562 22.234375 " fill-opacity="1" fill-rule="nonzero"/><path fill="#5b5e71" d="M 30.226562 20.144531 C 30.210938 20.152344 30.210938 20.167969 30.226562 20.175781 L 30.492188 20.332031 C 30.503906 20.339844 30.527344 20.339844 30.542969 20.332031 L 30.808594 20.175781 C 30.824219 20.167969 30.824219 20.152344 30.808594 20.144531 L 30.542969 19.992188 C 30.53125 19.984375 30.507812 19.980469 30.492188 19.992188 Z M 30.226562 20.144531 " fill-opacity="1" fill-rule="nonzero"/><path fill="#5b5e71" d="M 27.582031 21.109375 C 27.570312 21.117188 27.570312 21.132812 27.585938 21.140625 L 27.851562 21.292969 C 27.863281 21.300781 27.886719 21.300781 27.902344 21.292969 L 28.167969 21.140625 C 28.183594 21.132812 28.183594 21.117188 28.167969 21.109375 L 27.902344 20.953125 C 27.890625 20.945312 27.867188 20.945312 27.851562 20.953125 Z M 27.582031 21.109375 " fill-opacity="1" fill-rule="nonzero"/><path fill="#5b5e71" d="M 28.0625 20.832031 C 28.050781 20.839844 28.050781 20.851562 28.0625 20.863281 L 28.328125 21.015625 C 28.34375 21.023438 28.367188 21.023438 28.378906 21.015625 L 28.648438 20.859375 C 28.660156 20.851562 28.664062 20.839844 28.648438 20.832031 L 28.382812 20.675781 C 28.367188 20.667969 28.34375 20.667969 28.332031 20.675781 Z M 28.0625 20.832031 " fill-opacity="1" fill-rule="nonzero"/><path fill="#5b5e71" d="M 28.542969 20.554688 C 28.527344 20.5625 28.527344 20.574219 28.542969 20.582031 L 28.808594 20.738281 C 28.824219 20.746094 28.847656 20.746094 28.859375 20.738281 L 29.128906 20.582031 C 29.140625 20.574219 29.140625 20.5625 29.128906 20.554688 L 28.863281 20.398438 C 28.847656 20.390625 28.824219 20.390625 28.8125 20.398438 Z M 28.542969 20.554688 " fill-opacity="1" fill-rule="nonzero"/><path fill="#5b5e71" d="M 29.5 19.996094 C 29.488281 20.007812 29.488281 20.019531 29.5 20.027344 L 29.765625 20.183594 C 29.78125 20.191406 29.804688 20.191406 29.820312 20.183594 L 30.085938 20.027344 C 30.097656 20.019531 30.101562 20.007812 30.085938 20 L 29.820312 19.84375 C 29.804688 19.835938 29.78125 19.835938 29.769531 19.84375 Z M 29.5 19.996094 " fill-opacity="1" fill-rule="nonzero"/><path fill="#5b5e71" d="M 29.023438 20.277344 C 29.007812 20.285156 29.007812 20.296875 29.023438 20.304688 L 29.289062 20.460938 C 29.300781 20.46875 29.324219 20.46875 29.339844 20.460938 L 29.605469 20.304688 C 29.621094 20.296875 29.621094 20.285156 29.605469 20.277344 L 29.339844 20.121094 C 29.328125 20.113281 29.304688 20.113281 29.289062 20.121094 Z M 29.023438 20.277344 " fill-opacity="1" fill-rule="nonzero"/><path fill="#5b5e71" d="M 32.601562 18.203125 C 32.585938 18.210938 32.585938 18.222656 32.601562 18.230469 L 32.867188 18.386719 C 32.882812 18.394531 32.902344 18.394531 32.917969 18.386719 L 33.183594 18.230469 C 33.199219 18.222656 33.199219 18.210938 33.183594 18.203125 L 32.917969 18.046875 C 32.90625 18.039062 32.882812 18.039062 32.867188 18.046875 Z M 32.601562 18.203125 " fill-opacity="1" fill-rule="nonzero"/><path fill="#5b5e71" d="M 32.121094 18.480469 C 32.105469 18.488281 32.109375 18.5 32.121094 18.507812 L 32.386719 18.664062 C 32.402344 18.671875 32.421875 18.671875 32.4375 18.664062 L 32.707031 18.507812 C 32.71875 18.5 32.71875 18.488281 32.707031 18.480469 L 32.441406 18.324219 C 32.425781 18.316406 32.402344 18.316406 32.390625 18.324219 Z M 32.121094 18.480469 " fill-opacity="1" fill-rule="nonzero"/><path fill="#5b5e71" d="M 33.089844 18.484375 C 33.074219 18.496094 33.074219 18.507812 33.089844 18.515625 L 33.355469 18.671875 C 33.367188 18.679688 33.390625 18.679688 33.40625 18.671875 L 33.671875 18.515625 C 33.6875 18.507812 33.6875 18.496094 33.671875 18.488281 L 33.40625 18.332031 C 33.394531 18.324219 33.371094 18.324219 33.355469 18.332031 Z M 33.089844 18.484375 " fill-opacity="1" fill-rule="nonzero"/><path fill="#5b5e71" d="M 32.609375 18.765625 C 32.59375 18.773438 32.59375 18.785156 32.609375 18.792969 L 32.875 18.949219 C 32.890625 18.957031 32.910156 18.957031 32.925781 18.949219 L 33.195312 18.792969 C 33.207031 18.785156 33.207031 18.773438 33.195312 18.765625 L 32.929688 18.609375 C 32.914062 18.601562 32.890625 18.601562 32.875 18.609375 Z M 32.609375 18.765625 " fill-opacity="1" fill-rule="nonzero"/><path fill="#5b5e71" d="M 33.578125 18.769531 C 33.5625 18.777344 33.5625 18.792969 33.574219 18.800781 L 33.839844 18.957031 C 33.855469 18.964844 33.878906 18.964844 33.894531 18.957031 L 34.160156 18.800781 C 34.175781 18.792969 34.175781 18.777344 34.160156 18.769531 L 33.894531 18.617188 C 33.878906 18.609375 33.859375 18.605469 33.84375 18.617188 Z M 33.578125 18.769531 " fill-opacity="1" fill-rule="nonzero"/><path fill="#5b5e71" d="M 34.0625 19.042969 C 34.046875 19.050781 34.046875 19.0625 34.0625 19.070312 L 34.328125 19.226562 C 34.339844 19.234375 34.363281 19.234375 34.378906 19.226562 L 34.644531 19.070312 C 34.660156 19.0625 34.660156 19.050781 34.644531 19.042969 L 34.378906 18.886719 C 34.367188 18.878906 34.34375 18.878906 34.328125 18.886719 Z M 34.0625 19.042969 " fill-opacity="1" fill-rule="nonzero"/><path fill="#5b5e71" d="M 32.128906 19.042969 C 32.117188 19.050781 32.117188 19.0625 32.128906 19.070312 L 32.394531 19.226562 C 32.410156 19.234375 32.433594 19.234375 32.445312 19.226562 L 32.714844 19.070312 C 32.730469 19.0625 32.726562 19.050781 32.714844 19.042969 L 32.449219 18.886719 C 32.433594 18.878906 32.410156 18.878906 32.398438 18.886719 Z M 32.128906 19.042969 " fill-opacity="1" fill-rule="nonzero"/><path fill="#5b5e71" d="M 33.097656 19.046875 C 33.082031 19.058594 33.082031 19.070312 33.097656 19.078125 L 33.363281 19.234375 C 33.375 19.242188 33.398438 19.242188 33.414062 19.234375 L 33.679688 19.078125 C 33.695312 19.070312 33.695312 19.058594 33.679688 19.046875 L 33.414062 18.894531 C 33.402344 18.886719 33.378906 18.886719 33.363281 18.894531 Z M 33.097656 19.046875 " fill-opacity="1" fill-rule="nonzero"/><path fill="#5b5e71" d="M 32.617188 19.328125 C 32.601562 19.335938 32.605469 19.347656 32.617188 19.355469 L 32.882812 19.511719 C 32.898438 19.519531 32.921875 19.519531 32.933594 19.511719 L 33.203125 19.355469 C 33.214844 19.347656 33.214844 19.335938 33.203125 19.328125 L 32.9375 19.171875 C 32.921875 19.164062 32.898438 19.164062 32.886719 19.171875 Z M 32.617188 19.328125 " fill-opacity="1" fill-rule="nonzero"/><path fill="#5b5e71" d="M 33.585938 19.332031 C 33.570312 19.339844 33.570312 19.355469 33.585938 19.363281 L 33.851562 19.515625 C 33.863281 19.527344 33.886719 19.527344 33.902344 19.515625 L 34.167969 19.363281 C 34.183594 19.355469 34.183594 19.339844 34.167969 19.332031 L 33.902344 19.179688 C 33.886719 19.167969 33.867188 19.167969 33.851562 19.179688 Z M 33.585938 19.332031 " fill-opacity="1" fill-rule="nonzero"/><path fill="#5b5e71" d="M 33.105469 19.609375 C 33.089844 19.621094 33.089844 19.632812 33.105469 19.640625 L 33.371094 19.796875 C 33.386719 19.804688 33.40625 19.804688 33.421875 19.796875 L 33.6875 19.640625 C 33.703125 19.632812 33.703125 19.621094 33.6875 19.609375 L 33.421875 19.457031 C 33.410156 19.449219 33.386719 19.449219 33.375 19.457031 Z M 33.105469 19.609375 " fill-opacity="1" fill-rule="nonzero"/><path fill="#5b5e71" d="M 31.640625 18.757812 C 31.628906 18.765625 31.628906 18.777344 31.644531 18.785156 L 31.910156 18.941406 C 31.921875 18.949219 31.945312 18.949219 31.960938 18.941406 L 32.226562 18.785156 C 32.242188 18.777344 32.242188 18.765625 32.226562 18.757812 L 31.960938 18.601562 C 31.945312 18.59375 31.925781 18.59375 31.910156 18.601562 Z M 31.640625 18.757812 " fill-opacity="1" fill-rule="nonzero"/><path fill="#5b5e71" d="M 27.105469 21.386719 C 27.089844 21.394531 27.089844 21.410156 27.105469 21.417969 L 27.371094 21.570312 C 27.386719 21.582031 27.40625 21.578125 27.421875 21.570312 L 27.691406 21.417969 C 27.703125 21.410156 27.703125 21.394531 27.691406 21.386719 L 27.425781 21.230469 C 27.410156 21.222656 27.386719 21.222656 27.371094 21.230469 Z M 27.105469 21.386719 " fill-opacity="1" fill-rule="nonzero"/><path fill="#5b5e71" d="M 26.625 21.664062 C 26.613281 21.671875 26.613281 21.6875 26.625 21.695312 L 26.890625 21.851562 C 26.90625 21.859375 26.929688 21.859375 26.941406 21.851562 L 27.210938 21.695312 C 27.222656 21.6875 27.226562 21.671875 27.210938 21.664062 L 26.945312 21.511719 C 26.929688 21.5 26.90625 21.5 26.894531 21.511719 Z M 26.625 21.664062 " fill-opacity="1" fill-rule="nonzero"/><path fill="#5b5e71" d="M 29.820312 19.246094 C 29.804688 19.25 29.804688 19.265625 29.820312 19.273438 L 29.933594 19.339844 C 29.949219 19.347656 29.96875 19.347656 29.984375 19.339844 L 30.242188 19.191406 C 30.253906 19.183594 30.253906 19.171875 30.242188 19.164062 L 30.125 19.09375 C 30.113281 19.085938 30.089844 19.085938 30.078125 19.09375 Z M 29.820312 19.246094 " fill-opacity="1" fill-rule="nonzero"/><path fill="#5b5e71" d="M 30.28125 18.976562 C 30.265625 18.984375 30.265625 18.996094 30.28125 19.003906 L 30.394531 19.074219 C 30.410156 19.082031 30.429688 19.082031 30.445312 19.074219 L 30.703125 18.921875 C 30.714844 18.914062 30.714844 18.902344 30.703125 18.894531 L 30.585938 18.828125 C 30.574219 18.820312 30.550781 18.820312 30.539062 18.828125 Z M 30.28125 18.976562 " fill-opacity="1" fill-rule="nonzero"/><path fill="#5b5e71" d="M 30.742188 18.710938 C 30.726562 18.71875 30.726562 18.730469 30.742188 18.738281 L 30.855469 18.804688 C 30.871094 18.8125 30.890625 18.8125 30.90625 18.804688 L 31.035156 18.730469 C 31.046875 18.722656 31.046875 18.710938 31.035156 18.703125 L 30.917969 18.632812 C 30.90625 18.628906 30.882812 18.628906 30.871094 18.632812 Z M 30.742188 18.710938 " fill-opacity="1" fill-rule="nonzero"/><path fill="#5b5e71" d="M 31.664062 18.175781 C 31.648438 18.183594 31.648438 18.195312 31.660156 18.203125 L 31.777344 18.273438 C 31.792969 18.28125 31.8125 18.28125 31.828125 18.273438 L 32.082031 18.125 C 32.097656 18.113281 32.097656 18.101562 32.085938 18.09375 L 31.96875 18.027344 C 31.953125 18.019531 31.933594 18.019531 31.917969 18.027344 Z M 31.664062 18.175781 " fill-opacity="1" fill-rule="nonzero"/><path fill="#5b5e71" d="M 31.203125 18.441406 C 31.1875 18.449219 31.1875 18.464844 31.203125 18.472656 L 31.316406 18.539062 C 31.332031 18.546875 31.351562 18.546875 31.367188 18.539062 L 31.625 18.390625 C 31.636719 18.382812 31.636719 18.367188 31.625 18.359375 L 31.507812 18.292969 C 31.496094 18.285156 31.472656 18.285156 31.457031 18.292969 Z M 31.203125 18.441406 " fill-opacity="1" fill-rule="nonzero"/><path fill="#5b5e71" d="M 32.121094 17.910156 C 32.109375 17.917969 32.109375 17.929688 32.121094 17.9375 L 32.238281 18.003906 C 32.25 18.011719 32.273438 18.011719 32.289062 18.003906 L 32.542969 17.855469 C 32.558594 17.847656 32.558594 17.835938 32.542969 17.828125 L 32.429688 17.761719 C 32.414062 17.753906 32.394531 17.753906 32.378906 17.761719 Z M 32.121094 17.910156 " fill-opacity="1" fill-rule="nonzero"/><path fill="#5b5e71" d="M 28.4375 20.042969 C 28.425781 20.050781 28.425781 20.066406 28.4375 20.074219 L 28.554688 20.140625 C 28.566406 20.148438 28.589844 20.148438 28.601562 20.140625 L 28.859375 19.992188 C 28.871094 19.984375 28.871094 19.972656 28.859375 19.964844 L 28.742188 19.894531 C 28.730469 19.886719 28.707031 19.886719 28.695312 19.894531 Z M 28.4375 20.042969 " fill-opacity="1" fill-rule="nonzero"/><path fill="#5b5e71" d="M 28.898438 19.777344 C 28.886719 19.785156 28.882812 19.796875 28.898438 19.804688 L 29.011719 19.875 C 29.027344 19.882812 29.050781 19.882812 29.0625 19.875 L 29.320312 19.726562 C 29.332031 19.71875 29.332031 19.703125 29.320312 19.695312 L 29.203125 19.628906 C 29.191406 19.621094 29.167969 19.621094 29.15625 19.628906 Z M 28.898438 19.777344 " fill-opacity="1" fill-rule="nonzero"/><path fill="#5b5e71" d="M 29.359375 19.511719 C 29.34375 19.519531 29.34375 19.53125 29.359375 19.539062 L 29.472656 19.605469 C 29.488281 19.613281 29.507812 19.613281 29.523438 19.605469 L 29.78125 19.457031 C 29.792969 19.449219 29.792969 19.4375 29.78125 19.429688 L 29.664062 19.363281 C 29.652344 19.355469 29.628906 19.355469 29.617188 19.363281 Z M 29.359375 19.511719 " fill-opacity="1" fill-rule="nonzero"/><path fill="#5b5e71" d="M 27.054688 20.847656 C 27.042969 20.855469 27.042969 20.867188 27.054688 20.875 L 27.171875 20.941406 C 27.183594 20.949219 27.207031 20.949219 27.21875 20.941406 L 27.476562 20.792969 C 27.492188 20.785156 27.492188 20.773438 27.476562 20.765625 L 27.363281 20.695312 C 27.347656 20.6875 27.328125 20.6875 27.3125 20.695312 Z M 27.054688 20.847656 " fill-opacity="1" fill-rule="nonzero"/><path fill="#5b5e71" d="M 27.515625 20.578125 C 27.503906 20.585938 27.503906 20.597656 27.515625 20.605469 L 27.632812 20.675781 C 27.644531 20.683594 27.667969 20.683594 27.679688 20.675781 L 27.9375 20.527344 C 27.953125 20.519531 27.953125 20.503906 27.9375 20.496094 L 27.824219 20.429688 C 27.808594 20.421875 27.789062 20.421875 27.773438 20.429688 Z M 27.515625 20.578125 " fill-opacity="1" fill-rule="nonzero"/><path fill="#5b5e71" d="M 27.976562 20.3125 C 27.964844 20.320312 27.964844 20.332031 27.976562 20.339844 L 28.09375 20.40625 C 28.105469 20.414062 28.128906 20.414062 28.140625 20.40625 L 28.398438 20.257812 C 28.410156 20.25 28.414062 20.238281 28.398438 20.230469 L 28.28125 20.164062 C 28.269531 20.15625 28.246094 20.15625 28.234375 20.164062 Z M 27.976562 20.3125 " fill-opacity="1" fill-rule="nonzero"/><path fill="#5b5e71" d="M 26.597656 21.113281 C 26.582031 21.121094 26.582031 21.132812 26.59375 21.140625 L 26.710938 21.207031 C 26.726562 21.214844 26.746094 21.214844 26.761719 21.207031 L 27.015625 21.058594 C 27.03125 21.050781 27.03125 21.039062 27.015625 21.03125 L 26.902344 20.964844 C 26.886719 20.957031 26.867188 20.957031 26.851562 20.964844 Z M 26.597656 21.113281 " fill-opacity="1" fill-rule="nonzero"/><path fill="#5b5e71" d="M 26.136719 21.378906 C 26.121094 21.386719 26.121094 21.402344 26.136719 21.410156 L 26.25 21.476562 C 26.265625 21.484375 26.285156 21.484375 26.300781 21.476562 L 26.558594 21.328125 C 26.570312 21.320312 26.570312 21.304688 26.558594 21.296875 L 26.441406 21.230469 C 26.429688 21.222656 26.40625 21.222656 26.390625 21.230469 Z M 26.136719 21.378906 " fill-opacity="1" fill-rule="nonzero"/><path fill="#bac1ce" d="M 26.207031 22.089844 L 26.207031 22.15625 L 26.558594 22.359375 L 26.558594 22.292969 Z M 26.207031 22.089844 " fill-opacity="1" fill-rule="nonzero"/><path fill="#bac1ce" d="M 25.875 21.898438 L 25.875 21.960938 L 26.070312 22.074219 L 26.070312 22.011719 Z M 25.875 21.898438 " fill-opacity="1" fill-rule="nonzero"/><path fill="#ffffff" d="M 29.335938 14.785156 C 29.851562 14.484375 30.273438 14.726562 30.277344 15.324219 C 30.277344 15.390625 30.273438 15.457031 30.261719 15.527344 C 30.675781 15.339844 31 15.558594 31.003906 16.050781 C 31.003906 16.582031 30.632812 17.222656 30.175781 17.488281 L 27.613281 18.976562 C 27.257812 19.179688 26.964844 19.015625 26.964844 18.605469 C 26.964844 18.304688 27.117188 17.953125 27.339844 17.707031 C 27.328125 17.652344 27.324219 17.59375 27.324219 17.523438 C 27.320312 17 27.691406 16.363281 28.144531 16.097656 C 28.257812 16.03125 28.367188 15.996094 28.460938 15.988281 C 28.597656 15.503906 28.9375 15.015625 29.335938 14.785156 Z M 29.335938 14.785156 " fill-opacity="1" fill-rule="nonzero"/><path fill="#416e84" d="M 4.039062 32.183594 C 4.007812 32.183594 3.972656 32.175781 3.941406 32.160156 L 0.0429688 29.867188 C -0.015625 29.832031 -0.0507812 29.769531 -0.0507812 29.699219 L -0.0585938 26.425781 C -0.0625 26.355469 -0.0234375 26.292969 0.0351562 26.257812 L 11.183594 19.792969 L 11.167969 13.273438 C 11.167969 13.167969 11.253906 13.082031 11.359375 13.082031 C 11.464844 13.082031 11.550781 13.167969 11.550781 13.273438 L 11.570312 19.902344 C 11.570312 19.972656 11.53125 20.035156 11.472656 20.070312 L 0.324219 26.535156 L 0.332031 29.589844 L 4.136719 31.828125 C 4.226562 31.878906 4.257812 32 4.203125 32.089844 C 4.167969 32.152344 4.105469 32.183594 4.039062 32.183594 Z M 4.039062 32.183594 " fill-opacity="1" fill-rule="nonzero"/><path fill="#525566" d="M 0.640625 32.429688 L 0.640625 32.917969 C 0.640625 32.980469 0.679688 33.039062 0.761719 33.085938 L 7.328125 36.917969 C 7.484375 37.011719 7.746094 37.011719 7.90625 36.917969 L 11.671875 34.730469 C 11.753906 34.683594 11.796875 34.625 11.796875 34.558594 L 11.792969 34.070312 C 11.792969 34.132812 11.753906 34.195312 11.671875 34.242188 L 7.90625 36.425781 C 7.742188 36.519531 7.484375 36.519531 7.328125 36.425781 L 0.757812 32.59375 C 0.679688 32.550781 0.640625 32.488281 0.640625 32.429688 Z M 0.640625 32.429688 " fill-opacity="1" fill-rule="nonzero"/><path fill="#5b5e71" d="M 0.761719 32.257812 C 0.601562 32.351562 0.601562 32.503906 0.757812 32.59375 L 7.324219 36.425781 C 7.484375 36.519531 7.742188 36.519531 7.90625 36.425781 L 11.671875 34.242188 C 11.835938 34.148438 11.835938 33.996094 11.675781 33.902344 L 5.109375 30.074219 C 4.953125 29.980469 4.691406 29.980469 4.53125 30.074219 Z M 0.761719 32.257812 " fill-opacity="1" fill-rule="nonzero"/><path fill="#525566" d="M 9.234375 34.996094 C 9.144531 35.050781 9.144531 35.140625 9.234375 35.195312 C 9.328125 35.246094 9.476562 35.246094 9.570312 35.191406 C 9.664062 35.136719 9.664062 35.050781 9.574219 35 C 9.480469 34.945312 9.328125 34.945312 9.234375 34.996094 Z M 9.234375 34.996094 " fill-opacity="1" fill-rule="nonzero"/><path fill="#525566" d="M 2.847656 31.273438 C 2.785156 31.308594 2.785156 31.367188 2.847656 31.402344 C 2.910156 31.4375 3.011719 31.4375 3.074219 31.402344 C 3.136719 31.367188 3.136719 31.308594 3.074219 31.273438 C 3.011719 31.234375 2.914062 31.234375 2.847656 31.273438 Z M 2.847656 31.273438 " fill-opacity="1" fill-rule="nonzero"/><path fill="#525566" d="M 7.761719 35.929688 C 7.707031 35.960938 7.707031 36.015625 7.761719 36.046875 C 7.820312 36.078125 7.910156 36.078125 7.964844 36.046875 L 8.3125 35.84375 C 8.367188 35.8125 8.371094 35.761719 8.3125 35.726562 C 8.257812 35.695312 8.167969 35.695312 8.109375 35.726562 Z M 7.761719 35.929688 " fill-opacity="1" fill-rule="nonzero"/><path fill="#525566" d="M 10.449219 34.371094 C 10.394531 34.402344 10.394531 34.457031 10.449219 34.488281 C 10.507812 34.519531 10.597656 34.519531 10.652344 34.488281 L 11 34.285156 C 11.054688 34.253906 11.058594 34.203125 11 34.167969 C 10.945312 34.136719 10.855469 34.136719 10.796875 34.167969 Z M 10.449219 34.371094 " fill-opacity="1" fill-rule="nonzero"/><path fill="#9ad898" d="M 1.394531 32.570312 L 7.183594 35.949219 L 10.875 33.804688 L 5.089844 30.429688 Z M 1.394531 32.570312 " fill-opacity="1" fill-rule="nonzero"/><path fill="#cad0dd" d="M 22.449219 4.125 C 21.882812 3.789062 21.097656 3.835938 20.226562 4.34375 L 20.082031 4.4375 L 18.335938 3.410156 L 18.476562 3.320312 C 19.347656 2.820312 20.65625 3.078125 21.230469 3.410156 Z M 22.449219 4.125 " fill-opacity="1" fill-rule="nonzero"/><g clip-path="url(#e08fda36a2)"><path fill="#bac1ce" d="M 18.101562 1.027344 L 19.324219 1.742188 C 18.804688 1.4375 18.085938 1.480469 17.292969 1.941406 C 16.917969 2.160156 16.558594 2.449219 16.230469 2.792969 L 15.007812 2.078125 C 15.335938 1.734375 15.695312 1.445312 16.070312 1.226562 C 16.867188 0.769531 17.582031 0.726562 18.101562 1.027344 Z M 18.101562 1.027344 " fill-opacity="1" fill-rule="nonzero"/></g><g clip-path="url(#06b9dbdc36)"><path fill="#cad0dd" d="M 15.464844 1.785156 C 14.898438 1.457031 14.113281 1.503906 13.234375 2.003906 C 11.863281 2.804688 10.707031 4.496094 10.292969 6.152344 L 9.070312 5.441406 C 9.484375 3.785156 10.644531 2.085938 12.011719 1.292969 C 12.882812 0.785156 13.679688 0.738281 14.246094 1.074219 Z M 15.464844 1.785156 " fill-opacity="1" fill-rule="nonzero"/></g><path fill="#cad0dd" d="M 4.25 19.777344 L 3.027344 19.0625 C 2.464844 18.734375 2.117188 18.035156 2.113281 17.039062 C 2.105469 15.050781 3.503906 12.613281 5.234375 11.613281 C 5.304688 11.570312 5.367188 11.535156 5.4375 11.5 L 6.660156 12.214844 C 6.589844 12.246094 6.527344 12.285156 6.457031 12.324219 C 4.726562 13.328125 3.328125 15.761719 3.335938 17.75 C 3.339844 18.746094 3.6875 19.449219 4.25 19.777344 Z M 4.25 19.777344 " fill-opacity="1" fill-rule="nonzero"/><path fill="#bac1ce" d="M 6.660156 12.214844 L 5.4375 11.5 C 5.378906 11.277344 5.347656 11.035156 5.34375 10.757812 C 5.339844 8.9375 6.621094 6.707031 8.1875 5.796875 C 8.496094 5.617188 8.796875 5.503906 9.070312 5.441406 L 10.292969 6.15625 C 10.019531 6.21875 9.71875 6.332031 9.410156 6.511719 C 7.84375 7.417969 6.5625 9.648438 6.566406 11.46875 C 6.570312 11.746094 6.601562 11.992188 6.660156 12.214844 Z M 6.660156 12.214844 " fill-opacity="1" fill-rule="nonzero"/><path fill="#e4e8f4" d="M 23.367188 6.136719 C 23.375 8.144531 21.972656 10.566406 20.25 11.570312 L 6.476562 19.554688 C 4.746094 20.558594 3.339844 19.753906 3.339844 17.753906 C 3.332031 15.765625 4.722656 13.324219 6.457031 12.324219 C 6.523438 12.285156 6.589844 12.246094 6.660156 12.214844 C 6.597656 11.996094 6.570312 11.746094 6.570312 11.472656 C 6.5625 9.648438 7.847656 7.421875 9.40625 6.511719 C 9.722656 6.328125 10.019531 6.214844 10.292969 6.152344 C 10.707031 4.496094 11.867188 2.804688 13.234375 2.003906 C 14.632812 1.191406 15.824219 1.574219 16.230469 2.796875 C 16.554688 2.445312 16.917969 2.15625 17.289062 1.945312 C 18.878906 1.027344 20.15625 1.769531 20.15625 3.59375 C 20.15625 3.867188 20.128906 4.148438 20.082031 4.4375 L 20.226562 4.34375 C 21.957031 3.34375 23.359375 4.148438 23.367188 6.136719 Z M 23.367188 6.136719 " fill-opacity="1" fill-rule="nonzero"/><path fill="#4c7891" d="M 13.621094 10.292969 L 12.769531 10.90625 C 12.726562 11.082031 12.667969 11.257812 12.59375 11.441406 L 13.144531 11.914062 L 12.484375 13.058594 L 11.761719 12.824219 C 11.65625 12.945312 11.542969 13.058594 11.425781 13.160156 L 11.320312 14.292969 L 10.394531 14.828125 L 10.28125 13.828125 C 10.167969 13.859375 10.050781 13.878906 9.941406 13.878906 L 9.222656 14.949219 L 8.5625 14.574219 L 9.105469 13.464844 C 9.03125 13.367188 8.972656 13.257812 8.929688 13.132812 L 8.074219 13.507812 L 8.074219 12.433594 L 8.867188 11.863281 C 8.902344 11.65625 8.957031 11.445312 9.035156 11.230469 L 8.550781 10.808594 L 9.207031 9.667969 L 9.785156 9.859375 C 9.941406 9.65625 10.113281 9.46875 10.292969 9.3125 L 10.375 8.433594 L 11.300781 7.894531 L 11.390625 8.675781 C 11.570312 8.625 11.746094 8.613281 11.898438 8.636719 L 12.46875 7.773438 L 13.132812 8.152344 L 12.65625 9.132812 C 12.730469 9.257812 12.785156 9.40625 12.824219 9.566406 L 13.617188 9.21875 Z M 10.851562 12.988281 C 11.628906 12.535156 12.257812 11.445312 12.253906 10.550781 C 12.25 9.652344 11.617188 9.292969 10.84375 9.742188 C 10.066406 10.191406 9.4375 11.285156 9.441406 12.179688 C 9.445312 13.074219 10.078125 13.4375 10.851562 12.988281 " fill-opacity="1" fill-rule="nonzero"/><path fill="#f9607f" d="M 17.148438 5.390625 L 16.488281 5.8125 C 16.449219 5.945312 16.398438 6.085938 16.335938 6.226562 L 16.722656 6.644531 L 16.183594 7.5 L 15.65625 7.261719 C 15.574219 7.355469 15.480469 7.441406 15.394531 7.507812 L 15.265625 8.398438 L 14.550781 8.757812 L 14.511719 7.957031 C 14.421875 7.972656 14.335938 7.976562 14.257812 7.96875 L 13.671875 8.773438 L 13.199219 8.425781 L 13.648438 7.582031 C 13.597656 7.503906 13.5625 7.40625 13.53125 7.304688 L 12.878906 7.546875 L 12.925781 6.6875 L 13.539062 6.292969 C 13.574219 6.128906 13.625 5.972656 13.691406 5.804688 L 13.351562 5.433594 L 13.886719 4.578125 L 14.3125 4.769531 C 14.433594 4.621094 14.570312 4.484375 14.710938 4.371094 L 14.8125 3.679688 L 15.527344 3.316406 L 15.554688 3.941406 C 15.691406 3.917969 15.824219 3.917969 15.9375 3.949219 L 16.398438 3.308594 L 16.878906 3.652344 L 16.480469 4.398438 C 16.53125 4.503906 16.566406 4.621094 16.585938 4.753906 L 17.195312 4.53125 Z M 16.117188 5.496094 C 16.15625 4.78125 15.699219 4.453125 15.105469 4.753906 C 15.082031 4.765625 15.058594 4.777344 15.03125 4.792969 C 14.464844 5.121094 13.992188 5.90625 13.957031 6.585938 C 13.917969 7.296875 14.375 7.628906 14.96875 7.328125 C 14.992188 7.316406 15.019531 7.304688 15.042969 7.289062 C 15.609375 6.960938 16.082031 6.175781 16.117188 5.496094 " fill-opacity="1" fill-rule="nonzero"/><path fill="#bac1ce" d="M 17.363281 10.902344 L 16.707031 11.328125 C 16.667969 11.460938 16.613281 11.601562 16.554688 11.738281 L 16.941406 12.160156 L 16.402344 13.015625 L 15.867188 12.78125 C 15.792969 12.867188 15.699219 12.953125 15.609375 13.023438 L 15.480469 13.914062 L 14.765625 14.277344 L 14.726562 13.472656 C 14.640625 13.488281 14.554688 13.492188 14.472656 13.488281 L 13.890625 14.289062 L 13.417969 13.941406 L 13.863281 13.097656 C 13.816406 13.015625 13.777344 12.925781 13.75 12.820312 L 13.097656 13.058594 L 13.140625 12.203125 L 13.757812 11.808594 C 13.792969 11.644531 13.84375 11.488281 13.910156 11.320312 L 13.566406 10.949219 L 14.105469 10.089844 L 14.527344 10.285156 C 14.652344 10.132812 14.789062 9.996094 14.925781 9.886719 L 15.027344 9.191406 L 15.746094 8.828125 L 15.769531 9.460938 C 15.910156 9.433594 16.039062 9.429688 16.152344 9.460938 L 16.617188 8.820312 L 17.09375 9.167969 L 16.695312 9.914062 C 16.75 10.015625 16.78125 10.136719 16.804688 10.269531 L 17.410156 10.050781 Z M 16.335938 11.007812 C 16.371094 10.296875 15.917969 9.964844 15.324219 10.265625 C 15.300781 10.277344 15.277344 10.289062 15.257812 10.300781 C 14.6875 10.628906 14.210938 11.417969 14.175781 12.101562 C 14.136719 12.808594 14.59375 13.144531 15.1875 12.84375 C 15.210938 12.832031 15.234375 12.820312 15.257812 12.804688 C 15.828125 12.476562 16.300781 11.691406 16.335938 11.007812 " fill-opacity="1" fill-rule="nonzero"/><path fill="#ffffff" d="M 4.976562 32.511719 C 4.75 32.644531 4.710938 32.84375 4.855469 32.992188 C 4.785156 33.011719 4.714844 33.039062 4.65625 33.074219 C 4.378906 33.234375 4.375 33.492188 4.652344 33.65625 L 4.667969 33.660156 C 4.496094 33.820312 4.527344 34.027344 4.765625 34.167969 C 5.035156 34.324219 5.480469 34.324219 5.761719 34.164062 L 7.78125 32.992188 C 8.054688 32.832031 8.058594 32.574219 7.785156 32.414062 C 7.558594 32.28125 7.207031 32.257812 6.941406 32.347656 L 6.925781 32.335938 C 6.648438 32.175781 6.207031 32.171875 5.933594 32.332031 C 5.875 32.367188 5.832031 32.40625 5.800781 32.445312 C 5.539062 32.363281 5.199219 32.382812 4.976562 32.511719 Z M 4.976562 32.511719 " fill-opacity="1" fill-rule="nonzero"/><path fill="#bac1ce" d="M 14.582031 34.480469 L 28.613281 26.292969 C 28.535156 26.339844 28.484375 26.4375 28.484375 26.574219 C 28.484375 26.855469 28.679688 27.203125 28.925781 27.34375 C 29.046875 27.414062 29.160156 27.417969 29.238281 27.371094 L 15.207031 35.5625 C 15.125 35.609375 15.015625 35.601562 14.890625 35.53125 C 14.648438 35.390625 14.449219 35.042969 14.453125 34.765625 C 14.453125 34.625 14.5 34.527344 14.582031 34.480469 Z M 14.582031 34.480469 " fill-opacity="1" fill-rule="nonzero"/><path fill="#bac1ce" d="M 29.347656 27.558594 L 15.316406 35.746094 C 15.421875 35.6875 15.488281 35.554688 15.488281 35.363281 L 29.519531 27.175781 C 29.519531 27.367188 29.453125 27.496094 29.347656 27.558594 Z M 29.347656 27.558594 " fill-opacity="1" fill-rule="nonzero"/><path fill="#a6afbc" d="M 15.335938 35.277344 L 29.367188 27.089844 L 29.519531 27.175781 L 15.488281 35.363281 Z M 15.335938 35.277344 " fill-opacity="1" fill-rule="nonzero"/><g clip-path="url(#25be1068ce)"><path fill="#a6afbc" d="M 20.5 37.558594 L 34.535156 29.371094 L 34.53125 29.542969 L 20.5 37.734375 Z M 20.5 37.558594 " fill-opacity="1" fill-rule="nonzero"/></g><g clip-path="url(#a89529ad78)"><path fill="#d4dae8" d="M 34.535156 29.371094 L 20.5 37.558594 L 14.894531 34.335938 C 14.730469 34.238281 14.578125 34.226562 14.476562 34.292969 L 28.507812 26.105469 C 28.617188 26.039062 28.761719 26.050781 28.925781 26.144531 Z M 34.535156 29.371094 " fill-opacity="1" fill-rule="nonzero"/></g><g clip-path="url(#7962c7030d)"><path fill="#cad0dd" d="M 20.5 37.558594 L 20.5 37.734375 L 14.894531 34.511719 C 14.652344 34.371094 14.453125 34.484375 14.453125 34.765625 C 14.449219 35.042969 14.648438 35.390625 14.890625 35.53125 C 15.136719 35.671875 15.335938 35.558594 15.335938 35.277344 L 15.488281 35.363281 C 15.488281 35.746094 15.21875 35.898438 14.890625 35.707031 C 14.5625 35.515625 14.296875 35.054688 14.300781 34.675781 C 14.300781 34.296875 14.566406 34.144531 14.894531 34.335938 Z M 20.5 37.558594 " fill-opacity="1" fill-rule="nonzero"/></g><path fill="#bac1ce" d="M 17.222656 34.960938 L 17.226562 35 L 17.875 35.378906 L 17.941406 35.378906 L 18.875 34.839844 L 18.875 34.796875 L 18.230469 34.417969 L 18.15625 34.417969 Z M 17.222656 34.960938 " fill-opacity="1" fill-rule="nonzero"/><path fill="#bac1ce" d="M 19.753906 36.449219 L 19.753906 36.492188 L 20.398438 36.867188 L 20.46875 36.867188 L 21.164062 36.464844 L 21.167969 36.421875 L 20.519531 36.046875 L 20.449219 36.046875 Z M 19.753906 36.449219 " fill-opacity="1" fill-rule="nonzero"/><path fill="#bac1ce" d="M 20.667969 35.917969 L 20.667969 35.960938 L 21.316406 36.335938 L 21.382812 36.335938 L 22.078125 35.933594 L 22.082031 35.894531 L 21.433594 35.515625 L 21.363281 35.515625 Z M 20.667969 35.917969 " fill-opacity="1" fill-rule="nonzero"/><path fill="#bac1ce" d="M 22.5625 33.832031 L 22.566406 33.875 L 23.210938 34.25 L 23.28125 34.253906 L 23.976562 33.847656 L 23.976562 33.808594 L 23.332031 33.429688 L 23.257812 33.429688 Z M 22.5625 33.832031 " fill-opacity="1" fill-rule="nonzero"/><path fill="#bac1ce" d="M 27.988281 31.675781 L 27.988281 31.71875 L 28.632812 32.09375 L 28.703125 32.09375 L 29.398438 31.691406 L 29.402344 31.648438 L 28.753906 31.273438 L 28.683594 31.273438 Z M 27.988281 31.675781 " fill-opacity="1" fill-rule="nonzero"/><path fill="#bac1ce" d="M 28.054688 30.652344 L 28.054688 30.691406 L 28.703125 31.070312 L 28.773438 31.070312 L 29.472656 30.664062 L 29.46875 30.625 L 28.820312 30.246094 L 28.753906 30.246094 Z M 28.054688 30.652344 " fill-opacity="1" fill-rule="nonzero"/><path fill="#bac1ce" d="M 26.570312 29.542969 L 26.570312 29.585938 L 27.214844 29.960938 L 27.289062 29.960938 L 27.984375 29.558594 L 27.984375 29.515625 L 27.335938 29.140625 L 27.265625 29.140625 Z M 26.570312 29.542969 " fill-opacity="1" fill-rule="nonzero"/><path fill="#bac1ce" d="M 24.3125 29.867188 L 24.3125 29.90625 L 24.957031 30.285156 L 25.03125 30.285156 L 25.726562 29.882812 L 25.726562 29.839844 L 25.078125 29.460938 L 25.011719 29.464844 Z M 24.3125 29.867188 " fill-opacity="1" fill-rule="nonzero"/><path fill="#bac1ce" d="M 25.214844 29.34375 L 25.214844 29.382812 L 25.863281 29.761719 L 25.929688 29.761719 L 26.628906 29.359375 L 26.628906 29.316406 L 25.980469 28.9375 L 25.910156 28.941406 Z M 25.214844 29.34375 " fill-opacity="1" fill-rule="nonzero"/><path fill="#bac1ce" d="M 25.660156 30.070312 L 25.65625 30.113281 L 26.304688 30.488281 L 26.375 30.488281 L 27.074219 30.085938 L 27.074219 30.042969 L 26.425781 29.667969 L 26.355469 29.667969 Z M 25.660156 30.070312 " fill-opacity="1" fill-rule="nonzero"/><path fill="#bac1ce" d="M 26.738281 30.429688 L 26.738281 30.46875 L 27.386719 30.847656 L 27.453125 30.847656 L 28.152344 30.441406 L 28.152344 30.402344 L 27.503906 30.023438 L 27.4375 30.023438 Z M 26.738281 30.429688 " fill-opacity="1" fill-rule="nonzero"/><path fill="#bac1ce" d="M 24 32.019531 L 24 32.054688 L 24.648438 32.433594 L 24.714844 32.433594 L 25.410156 32.03125 L 25.414062 31.992188 L 24.765625 31.613281 L 24.695312 31.613281 Z M 24 32.019531 " fill-opacity="1" fill-rule="nonzero"/><path fill="#bac1ce" d="M 21.066406 30.871094 L 21.066406 30.914062 L 21.523438 31.179688 L 21.59375 31.179688 L 22.167969 30.847656 L 22.164062 30.808594 L 21.707031 30.542969 L 21.636719 30.539062 Z M 21.066406 30.871094 " fill-opacity="1" fill-rule="nonzero"/><path fill="#bac1ce" d="M 20.289062 31.324219 L 20.289062 31.363281 L 20.746094 31.632812 L 20.816406 31.632812 L 21.390625 31.300781 L 21.390625 31.257812 L 20.933594 30.992188 L 20.859375 30.992188 Z M 20.289062 31.324219 " fill-opacity="1" fill-rule="nonzero"/><path fill="#bac1ce" d="M 22.507812 30.914062 L 22.503906 30.953125 L 23.152344 31.332031 L 23.222656 31.332031 L 23.917969 30.929688 L 23.917969 30.886719 L 23.269531 30.511719 L 23.203125 30.511719 Z M 22.507812 30.914062 " fill-opacity="1" fill-rule="nonzero"/><path fill="#bac1ce" d="M 21.601562 31.4375 L 21.597656 31.480469 L 22.246094 31.855469 L 22.316406 31.855469 L 23.015625 31.453125 L 23.015625 31.410156 L 22.367188 31.035156 L 22.296875 31.035156 Z M 21.601562 31.4375 " fill-opacity="1" fill-rule="nonzero"/><path fill="#bac1ce" d="M 20.699219 31.960938 L 20.699219 32.003906 L 21.34375 32.378906 L 21.417969 32.378906 L 22.113281 31.976562 L 22.109375 31.933594 L 21.464844 31.558594 L 21.398438 31.558594 Z M 20.699219 31.960938 " fill-opacity="1" fill-rule="nonzero"/><path fill="#bac1ce" d="M 22.019531 32.179688 L 22.019531 32.222656 L 22.667969 32.597656 L 22.734375 32.601562 L 23.433594 32.195312 L 23.433594 32.15625 L 22.785156 31.777344 L 22.714844 31.777344 Z M 22.019531 32.179688 " fill-opacity="1" fill-rule="nonzero"/><path fill="#bac1ce" d="M 21.105469 32.710938 L 21.109375 32.75 L 21.757812 33.125 L 21.824219 33.128906 L 22.523438 32.722656 L 22.523438 32.683594 L 21.875 32.304688 L 21.804688 32.304688 Z M 21.105469 32.710938 " fill-opacity="1" fill-rule="nonzero"/><path fill="#bac1ce" d="M 22.929688 31.652344 L 22.929688 31.695312 L 23.574219 32.070312 L 23.648438 32.070312 L 24.34375 31.667969 L 24.34375 31.625 L 23.695312 31.25 L 23.625 31.25 Z M 22.929688 31.652344 " fill-opacity="1" fill-rule="nonzero"/><path fill="#bac1ce" d="M 28.917969 31.136719 L 28.917969 31.175781 L 29.566406 31.554688 L 29.632812 31.554688 L 30.332031 31.148438 L 30.332031 31.109375 L 29.683594 30.734375 L 29.617188 30.730469 Z M 28.917969 31.136719 " fill-opacity="1" fill-rule="nonzero"/><path fill="#bac1ce" d="M 28.058594 26.816406 L 28.058594 26.859375 L 28.515625 27.125 L 28.589844 27.125 L 29.160156 26.796875 L 29.15625 26.753906 L 28.699219 26.488281 L 28.632812 26.488281 Z M 28.058594 26.816406 " fill-opacity="1" fill-rule="nonzero"/><path fill="#bac1ce" d="M 27.28125 27.269531 L 27.28125 27.3125 L 27.738281 27.578125 L 27.8125 27.578125 L 28.382812 27.246094 L 28.382812 27.203125 L 27.925781 26.9375 L 27.855469 26.9375 Z M 27.28125 27.269531 " fill-opacity="1" fill-rule="nonzero"/><path fill="#bac1ce" d="M 26.503906 27.71875 L 26.507812 27.761719 L 26.964844 28.027344 L 27.03125 28.027344 L 27.605469 27.695312 L 27.605469 27.65625 L 27.148438 27.386719 L 27.074219 27.386719 Z M 26.503906 27.71875 " fill-opacity="1" fill-rule="nonzero"/><path fill="#bac1ce" d="M 27.925781 27.773438 L 27.925781 27.8125 L 28.570312 28.191406 L 28.644531 28.191406 L 30.101562 27.34375 L 30.097656 27.304688 L 29.453125 26.925781 L 29.386719 26.925781 Z M 27.925781 27.773438 " fill-opacity="1" fill-rule="nonzero"/><path fill="#bac1ce" d="M 29.316406 27.949219 L 29.316406 27.992188 L 29.964844 28.367188 L 30.035156 28.367188 L 30.953125 27.835938 L 30.949219 27.796875 L 30.304688 27.417969 L 30.234375 27.417969 Z M 29.316406 27.949219 " fill-opacity="1" fill-rule="nonzero"/><path fill="#bac1ce" d="M 27.023438 28.296875 L 27.023438 28.335938 L 27.667969 28.710938 L 27.738281 28.714844 L 28.4375 28.308594 L 28.433594 28.269531 L 27.789062 27.890625 L 27.722656 27.890625 Z M 27.023438 28.296875 " fill-opacity="1" fill-rule="nonzero"/><path fill="#bac1ce" d="M 28.386719 28.488281 L 28.390625 28.527344 L 29.039062 28.90625 L 29.105469 28.90625 L 29.800781 28.503906 L 29.804688 28.460938 L 29.15625 28.085938 L 29.085938 28.085938 Z M 28.386719 28.488281 " fill-opacity="1" fill-rule="nonzero"/><path fill="#bac1ce" d="M 26.121094 28.820312 L 26.117188 28.859375 L 26.765625 29.238281 L 26.835938 29.238281 L 27.53125 28.832031 L 27.53125 28.792969 L 26.886719 28.414062 L 26.816406 28.417969 Z M 26.121094 28.820312 " fill-opacity="1" fill-rule="nonzero"/><path fill="#bac1ce" d="M 29.503906 28.828125 L 29.503906 28.867188 L 30.152344 29.246094 L 30.21875 29.246094 L 31.796875 28.332031 L 31.796875 28.292969 L 31.148438 27.914062 L 31.082031 27.914062 Z M 29.503906 28.828125 " fill-opacity="1" fill-rule="nonzero"/><path fill="#bac1ce" d="M 27.476562 29.015625 L 27.480469 29.054688 L 28.125 29.433594 L 28.195312 29.433594 L 28.894531 29.03125 L 28.890625 28.988281 L 28.246094 28.613281 L 28.175781 28.609375 Z M 27.476562 29.015625 " fill-opacity="1" fill-rule="nonzero"/><path fill="#bac1ce" d="M 30.710938 29.109375 L 30.710938 29.152344 L 31.355469 29.53125 L 31.429688 29.53125 L 31.945312 29.230469 L 31.945312 29.1875 L 31.300781 28.8125 L 31.226562 28.8125 Z M 30.710938 29.109375 " fill-opacity="1" fill-rule="nonzero"/><path fill="#bac1ce" d="M 28.566406 29.371094 L 28.5625 29.410156 L 29.214844 29.789062 L 29.28125 29.789062 L 29.980469 29.382812 L 29.980469 29.34375 L 29.332031 28.964844 L 29.261719 28.96875 Z M 28.566406 29.371094 " fill-opacity="1" fill-rule="nonzero"/><path fill="#bac1ce" d="M 31.558594 29.605469 L 31.558594 29.648438 L 32.203125 30.023438 L 32.273438 30.023438 L 32.792969 29.722656 L 32.792969 29.683594 L 32.148438 29.304688 L 32.074219 29.304688 Z M 31.558594 29.605469 " fill-opacity="1" fill-rule="nonzero"/><path fill="#bac1ce" d="M 29.746094 29.671875 L 29.746094 29.710938 L 30.394531 30.089844 L 30.464844 30.089844 L 31.246094 29.636719 L 31.246094 29.59375 L 30.597656 29.21875 L 30.527344 29.21875 Z M 29.746094 29.671875 " fill-opacity="1" fill-rule="nonzero"/><path fill="#bac1ce" d="M 27.652344 29.898438 L 27.652344 29.9375 L 28.300781 30.316406 L 28.367188 30.316406 L 29.066406 29.914062 L 29.066406 29.875 L 28.417969 29.496094 L 28.347656 29.496094 Z M 27.652344 29.898438 " fill-opacity="1" fill-rule="nonzero"/><path fill="#bac1ce" d="M 30.855469 30.011719 L 30.855469 30.054688 L 31.503906 30.433594 L 31.570312 30.429688 L 32.089844 30.128906 L 32.09375 30.089844 L 31.445312 29.710938 L 31.375 29.710938 Z M 30.855469 30.011719 " fill-opacity="1" fill-rule="nonzero"/><path fill="#bac1ce" d="M 28.972656 30.117188 L 28.976562 30.160156 L 29.621094 30.535156 L 29.691406 30.539062 L 30.222656 30.230469 L 30.222656 30.1875 L 29.574219 29.8125 L 29.503906 29.8125 Z M 28.972656 30.117188 " fill-opacity="1" fill-rule="nonzero"/><path fill="#bac1ce" d="M 29.855469 30.589844 L 29.855469 30.632812 L 30.503906 31.011719 L 30.574219 31.007812 L 31.355469 30.554688 L 31.355469 30.519531 L 30.707031 30.140625 L 30.636719 30.140625 Z M 29.855469 30.589844 " fill-opacity="1" fill-rule="nonzero"/><path fill="#bac1ce" d="M 25.726562 28.171875 L 25.730469 28.210938 L 26.1875 28.476562 L 26.253906 28.480469 L 26.828125 28.148438 L 26.828125 28.105469 L 26.371094 27.839844 L 26.296875 27.839844 Z M 25.726562 28.171875 " fill-opacity="1" fill-rule="nonzero"/><path fill="#bac1ce" d="M 24.953125 28.621094 L 24.953125 28.660156 L 25.410156 28.929688 L 25.480469 28.929688 L 26.050781 28.597656 L 26.050781 28.554688 L 25.59375 28.289062 L 25.523438 28.289062 Z M 24.953125 28.621094 " fill-opacity="1" fill-rule="nonzero"/><path fill="#bac1ce" d="M 24.171875 29.070312 L 24.171875 29.113281 L 24.628906 29.378906 L 24.703125 29.378906 L 25.273438 29.046875 L 25.273438 29.003906 L 24.816406 28.738281 L 24.746094 28.738281 Z M 24.171875 29.070312 " fill-opacity="1" fill-rule="nonzero"/><path fill="#bac1ce" d="M 23.394531 29.519531 L 23.394531 29.5625 L 23.851562 29.832031 L 23.925781 29.832031 L 24.496094 29.5 L 24.496094 29.457031 L 24.039062 29.191406 L 23.96875 29.191406 Z M 23.394531 29.519531 " fill-opacity="1" fill-rule="nonzero"/><path fill="#bac1ce" d="M 22.617188 29.972656 L 22.621094 30.011719 L 23.078125 30.28125 L 23.148438 30.28125 L 23.71875 29.949219 L 23.71875 29.90625 L 23.261719 29.640625 L 23.191406 29.640625 Z M 22.617188 29.972656 " fill-opacity="1" fill-rule="nonzero"/><path fill="#bac1ce" d="M 23.410156 30.390625 L 23.410156 30.429688 L 24.054688 30.808594 L 24.125 30.808594 L 24.820312 30.40625 L 24.820312 30.363281 L 24.175781 29.988281 L 24.105469 29.988281 Z M 23.410156 30.390625 " fill-opacity="1" fill-rule="nonzero"/><path fill="#bac1ce" d="M 24.746094 30.597656 L 24.75 30.640625 L 25.398438 31.015625 L 25.464844 31.019531 L 26.160156 30.613281 L 26.164062 30.574219 L 25.515625 30.195312 L 25.445312 30.195312 Z M 24.746094 30.597656 " fill-opacity="1" fill-rule="nonzero"/><path fill="#bac1ce" d="M 23.839844 31.125 L 23.839844 31.167969 L 24.484375 31.542969 L 24.558594 31.542969 L 25.253906 31.140625 L 25.25 31.101562 L 24.605469 30.722656 L 24.535156 30.722656 Z M 23.839844 31.125 " fill-opacity="1" fill-rule="nonzero"/><path fill="#bac1ce" d="M 25.828125 30.957031 L 25.824219 31 L 26.472656 31.378906 L 26.542969 31.375 L 27.238281 30.972656 L 27.238281 30.933594 L 26.589844 30.554688 L 26.523438 30.554688 Z M 25.828125 30.957031 " fill-opacity="1" fill-rule="nonzero"/><path fill="#bac1ce" d="M 27.140625 31.179688 L 27.140625 31.222656 L 27.785156 31.601562 L 27.859375 31.601562 L 28.554688 31.195312 L 28.554688 31.15625 L 27.90625 30.777344 L 27.835938 30.777344 Z M 27.140625 31.179688 " fill-opacity="1" fill-rule="nonzero"/><path fill="#bac1ce" d="M 24.914062 31.488281 L 24.910156 31.527344 L 25.558594 31.90625 L 25.628906 31.90625 L 26.324219 31.503906 L 26.328125 31.460938 L 25.679688 31.082031 L 25.609375 31.085938 Z M 24.914062 31.488281 " fill-opacity="1" fill-rule="nonzero"/><path fill="#bac1ce" d="M 26.226562 31.710938 L 26.226562 31.753906 L 26.871094 32.128906 L 26.945312 32.128906 L 27.640625 31.726562 L 27.640625 31.683594 L 26.992188 31.308594 L 26.921875 31.308594 Z M 26.226562 31.710938 " fill-opacity="1" fill-rule="nonzero"/><path fill="#bac1ce" d="M 25.308594 32.242188 L 25.3125 32.28125 L 25.957031 32.660156 L 26.027344 32.660156 L 26.726562 32.257812 L 26.722656 32.214844 L 26.078125 31.839844 L 26.007812 31.835938 Z M 25.308594 32.242188 " fill-opacity="1" fill-rule="nonzero"/><path fill="#bac1ce" d="M 24.394531 32.773438 L 24.394531 32.8125 L 25.039062 33.191406 L 25.113281 33.191406 L 25.808594 32.789062 L 25.808594 32.746094 L 25.164062 32.367188 L 25.089844 32.367188 Z M 24.394531 32.773438 " fill-opacity="1" fill-rule="nonzero"/><path fill="#bac1ce" d="M 23.089844 32.546875 L 23.085938 32.585938 L 23.734375 32.964844 L 23.804688 32.964844 L 24.5 32.558594 L 24.5 32.519531 L 23.851562 32.140625 L 23.785156 32.140625 Z M 23.089844 32.546875 " fill-opacity="1" fill-rule="nonzero"/><path fill="#bac1ce" d="M 22.175781 33.074219 L 22.171875 33.117188 L 22.820312 33.496094 L 22.890625 33.492188 L 23.585938 33.089844 L 23.589844 33.050781 L 22.941406 32.671875 L 22.871094 32.671875 Z M 22.175781 33.074219 " fill-opacity="1" fill-rule="nonzero"/><path fill="#bac1ce" d="M 17.957031 32.675781 L 17.957031 32.714844 L 18.414062 32.984375 L 18.488281 32.984375 L 19.058594 32.652344 L 19.054688 32.609375 L 18.597656 32.34375 L 18.53125 32.34375 Z M 17.957031 32.675781 " fill-opacity="1" fill-rule="nonzero"/><path fill="#bac1ce" d="M 19.511719 31.773438 L 19.511719 31.8125 L 19.96875 32.082031 L 20.039062 32.082031 L 20.613281 31.75 L 20.613281 31.710938 L 20.15625 31.441406 L 20.082031 31.441406 Z M 19.511719 31.773438 " fill-opacity="1" fill-rule="nonzero"/><path fill="#bac1ce" d="M 18.734375 32.226562 L 18.734375 32.265625 L 19.191406 32.53125 L 19.261719 32.535156 L 19.832031 32.203125 L 19.832031 32.160156 L 19.375 31.894531 L 19.304688 31.894531 Z M 18.734375 32.226562 " fill-opacity="1" fill-rule="nonzero"/><path fill="#bac1ce" d="M 19.796875 32.484375 L 19.792969 32.527344 L 20.4375 32.902344 L 20.511719 32.902344 L 21.207031 32.5 L 21.207031 32.457031 L 20.5625 32.082031 L 20.492188 32.082031 Z M 19.796875 32.484375 " fill-opacity="1" fill-rule="nonzero"/><path fill="#bac1ce" d="M 17.179688 33.125 L 17.179688 33.167969 L 17.636719 33.433594 L 17.710938 33.433594 L 18.28125 33.101562 L 18.28125 33.058594 L 17.824219 32.792969 L 17.753906 32.792969 Z M 17.179688 33.125 " fill-opacity="1" fill-rule="nonzero"/><path fill="#bac1ce" d="M 18.890625 33.011719 L 18.890625 33.050781 L 19.539062 33.425781 L 19.605469 33.429688 L 20.304688 33.023438 L 20.304688 32.984375 L 19.65625 32.605469 L 19.589844 32.605469 Z M 18.890625 33.011719 " fill-opacity="1" fill-rule="nonzero"/><path fill="#bac1ce" d="M 20.199219 33.234375 L 20.199219 33.277344 L 20.84375 33.65625 L 20.917969 33.65625 L 21.613281 33.25 L 21.613281 33.210938 L 20.96875 32.832031 L 20.894531 32.832031 Z M 20.199219 33.234375 " fill-opacity="1" fill-rule="nonzero"/><path fill="#bac1ce" d="M 16.402344 33.574219 L 16.40625 33.617188 L 16.863281 33.882812 L 16.929688 33.882812 L 17.503906 33.554688 L 17.503906 33.511719 L 17.046875 33.242188 L 16.972656 33.242188 Z M 16.402344 33.574219 " fill-opacity="1" fill-rule="nonzero"/><path fill="#bac1ce" d="M 17.988281 33.535156 L 17.984375 33.574219 L 18.632812 33.949219 L 18.703125 33.949219 L 19.402344 33.546875 L 19.402344 33.503906 L 18.753906 33.128906 L 18.683594 33.128906 Z M 17.988281 33.535156 " fill-opacity="1" fill-rule="nonzero"/><path fill="#bac1ce" d="M 21.261719 33.605469 L 21.257812 33.644531 L 21.90625 34.023438 L 21.976562 34.023438 L 22.671875 33.621094 L 22.675781 33.578125 L 22.027344 33.199219 L 21.957031 33.203125 Z M 21.261719 33.605469 " fill-opacity="1" fill-rule="nonzero"/><path fill="#bac1ce" d="M 19.289062 33.761719 L 19.289062 33.804688 L 19.933594 34.183594 L 20.007812 34.183594 L 20.703125 33.777344 L 20.703125 33.738281 L 20.054688 33.359375 L 19.984375 33.359375 Z M 19.289062 33.761719 " fill-opacity="1" fill-rule="nonzero"/><path fill="#bac1ce" d="M 17.085938 34.058594 L 17.085938 34.097656 L 17.730469 34.472656 L 17.800781 34.476562 L 18.5 34.070312 L 18.496094 34.03125 L 17.851562 33.652344 L 17.785156 33.652344 Z M 17.085938 34.058594 " fill-opacity="1" fill-rule="nonzero"/><path fill="#bac1ce" d="M 20.347656 34.136719 L 20.347656 34.175781 L 20.996094 34.554688 L 21.0625 34.554688 L 21.757812 34.148438 L 21.761719 34.109375 L 21.113281 33.730469 L 21.042969 33.730469 Z M 20.347656 34.136719 " fill-opacity="1" fill-rule="nonzero"/><path fill="#bac1ce" d="M 18.378906 34.292969 L 18.378906 34.332031 L 19.027344 34.710938 L 19.09375 34.710938 L 19.792969 34.304688 L 19.792969 34.265625 L 19.144531 33.886719 L 19.078125 33.886719 Z M 18.378906 34.292969 " fill-opacity="1" fill-rule="nonzero"/><path fill="#bac1ce" d="M 21.648438 34.363281 L 21.648438 34.40625 L 22.296875 34.78125 L 22.367188 34.78125 L 23.0625 34.378906 L 23.0625 34.335938 L 22.417969 33.960938 L 22.34375 33.960938 Z M 21.648438 34.363281 " fill-opacity="1" fill-rule="nonzero"/><path fill="#bac1ce" d="M 19.4375 34.664062 L 19.433594 34.703125 L 20.082031 35.082031 L 20.152344 35.082031 L 20.847656 34.675781 L 20.847656 34.640625 L 20.199219 34.261719 L 20.132812 34.261719 Z M 19.4375 34.664062 " fill-opacity="1" fill-rule="nonzero"/><path fill="#bac1ce" d="M 20.734375 34.894531 L 20.734375 34.933594 L 21.382812 35.3125 L 21.453125 35.3125 L 22.148438 34.910156 L 22.148438 34.867188 L 21.5 34.492188 L 21.433594 34.488281 Z M 20.734375 34.894531 " fill-opacity="1" fill-rule="nonzero"/><path fill="#bac1ce" d="M 18.078125 35.449219 L 18.074219 35.492188 L 18.722656 35.871094 L 18.792969 35.867188 L 19.945312 35.203125 L 19.945312 35.160156 L 19.296875 34.78125 L 19.226562 34.785156 Z M 18.078125 35.449219 " fill-opacity="1" fill-rule="nonzero"/><path fill="#bac1ce" d="M 18.921875 35.945312 L 18.921875 35.984375 L 19.570312 36.363281 L 19.640625 36.363281 L 21.226562 35.445312 L 21.226562 35.402344 L 20.582031 35.023438 L 20.507812 35.023438 Z M 18.921875 35.945312 " fill-opacity="1" fill-rule="nonzero"/><path fill="#bac1ce" d="M 15.625 34.027344 L 15.628906 34.066406 L 16.085938 34.332031 L 16.152344 34.335938 L 16.726562 34.003906 L 16.726562 33.960938 L 16.269531 33.695312 L 16.195312 33.695312 Z M 15.625 34.027344 " fill-opacity="1" fill-rule="nonzero"/><path fill="#bac1ce" d="M 16.378906 34.46875 L 16.378906 34.503906 L 17.023438 34.882812 L 17.09375 34.882812 L 17.574219 34.605469 L 17.574219 34.566406 L 16.925781 34.1875 L 16.855469 34.191406 Z M 16.378906 34.46875 " fill-opacity="1" fill-rule="nonzero"/><path fill="#bac1ce" d="M 22.496094 34.859375 L 22.496094 34.898438 L 23.144531 35.277344 L 23.214844 35.277344 L 23.910156 34.871094 L 23.914062 34.832031 L 23.265625 34.453125 L 23.195312 34.453125 Z M 22.496094 34.859375 " fill-opacity="1" fill-rule="nonzero"/><path fill="#bac1ce" d="M 21.582031 35.386719 L 21.582031 35.429688 L 22.230469 35.808594 L 22.300781 35.804688 L 22.996094 35.402344 L 22.996094 35.363281 L 22.347656 34.984375 L 22.28125 34.984375 Z M 21.582031 35.386719 " fill-opacity="1" fill-rule="nonzero"/><path fill="#bac1ce" d="M 23.480469 33.300781 L 23.480469 33.34375 L 24.125 33.722656 L 24.199219 33.722656 L 24.894531 33.316406 L 24.890625 33.277344 L 24.246094 32.898438 L 24.175781 32.898438 Z M 23.480469 33.300781 " fill-opacity="1" fill-rule="nonzero"/><path fill="#bac1ce" d="M 23.375 34.347656 L 23.375 34.390625 L 24.019531 34.769531 L 24.089844 34.765625 L 28.484375 32.21875 L 28.488281 32.179688 L 27.839844 31.800781 L 27.769531 31.800781 Z M 23.375 34.347656 " fill-opacity="1" fill-rule="nonzero"/><path fill="#bac1ce" d="M 32.253906 29.203125 L 32.257812 29.242188 L 32.902344 29.621094 L 32.96875 29.621094 L 33.492188 29.316406 L 33.492188 29.28125 L 32.84375 28.902344 L 32.773438 28.902344 Z M 32.253906 29.203125 " fill-opacity="1" fill-rule="nonzero"/><path fill="#bac1ce" d="M 31.40625 28.707031 L 31.410156 28.746094 L 32.054688 29.125 L 32.125 29.125 L 32.644531 28.824219 L 32.644531 28.785156 L 31.996094 28.40625 L 31.925781 28.40625 Z M 31.40625 28.707031 " fill-opacity="1" fill-rule="nonzero"/><path fill="#bac1ce" d="M 21.84375 30.421875 L 21.84375 30.464844 L 22.300781 30.730469 L 22.371094 30.730469 L 22.945312 30.398438 L 22.941406 30.359375 L 22.484375 30.089844 L 22.414062 30.089844 Z M 21.84375 30.421875 " fill-opacity="1" fill-rule="nonzero"/></svg>